<svg xmlns="http://www.w3.org/2000/svg" xmlns:xlink="http://www.w3.org/1999/xlink" width="500" zoomAndPan="magnify" viewBox="0 0 375 374.999991" height="500" preserveAspectRatio="xMidYMid meet" version="1.0"><defs><clipPath id="id1"><path d="M 173 51 L 289 51 L 289 272 L 173 272 Z M 173 51 " clip-rule="nonzero"/></clipPath><clipPath id="id2"><path d="M 194.5 42.398438 L 326.660156 84.644531 L 258.390625 298.246094 L 126.226562 256.003906 Z M 194.5 42.398438 " clip-rule="nonzero"/></clipPath><clipPath id="id3"><path d="M 194.5 42.398438 L 326.660156 84.644531 L 258.390625 298.246094 L 126.226562 256.003906 Z M 194.5 42.398438 " clip-rule="nonzero"/></clipPath><clipPath id="id4"><path d="M 194.5 42.398438 L 326.660156 84.644531 L 258.390625 298.246094 L 126.226562 256.003906 Z M 194.5 42.398438 " clip-rule="nonzero"/></clipPath><clipPath id="id5"><path d="M 58 51 L 175 51 L 175 272 L 58 272 Z M 58 51 " clip-rule="nonzero"/></clipPath><clipPath id="id6"><path d="M 20.410156 84.605469 L 152.613281 42.496094 L 220.675781 256.167969 L 88.46875 298.277344 Z M 20.410156 84.605469 " clip-rule="nonzero"/></clipPath><clipPath id="id7"><path d="M 152.914062 42.398438 L 20.710938 84.511719 L 88.769531 298.183594 L 220.976562 256.074219 Z M 152.914062 42.398438 " clip-rule="nonzero"/></clipPath><clipPath id="id8"><path d="M 152.914062 42.398438 L 20.710938 84.511719 L 88.769531 298.183594 L 220.976562 256.074219 Z M 152.914062 42.398438 " clip-rule="nonzero"/></clipPath></defs><g clip-path="url(#id1)"><g clip-path="url(#id2)"><g clip-path="url(#id3)"><g clip-path="url(#id4)"><path fill="#000000" d="M 288.328125 203.730469 C 288.195312 203.40625 287.894531 203.171875 287.570312 203.160156 C 284.710938 203 281.75 202.851562 278.824219 203.332031 C 276.449219 203.703125 274.179688 204.484375 272.011719 205.25 L 261.464844 208.84375 C 257.746094 207.984375 253.992188 207.679688 250.214844 208.027344 C 251.519531 205.714844 252.808594 203.441406 254.054688 201.15625 C 256.929688 199.957031 262.796875 197.03125 265.824219 192.113281 C 267.160156 190 268.09375 187.660156 269.015625 185.367188 C 269.691406 183.699219 270.40625 182.042969 271.121094 180.390625 C 271.824219 178.78125 272.554688 177.082031 273.230469 175.414062 C 273.394531 175.042969 273.25 174.621094 272.949219 174.382812 C 272.648438 174.148438 272.167969 174.179688 271.902344 174.425781 L 260.886719 183.757812 C 259.597656 184.851562 258.238281 186.015625 257.136719 187.40625 C 254.09375 191.1875 253.164062 196.304688 252.375 200.386719 C 252.347656 200.46875 252.363281 200.570312 252.394531 200.625 C 251.9375 201.46875 251.480469 202.3125 250.980469 203.140625 C 251.554688 197.816406 250.199219 192.203125 247.136719 188.117188 C 246.933594 187.867188 246.609375 187.714844 246.253906 187.789062 C 245.902344 187.863281 245.679688 188.121094 245.613281 188.476562 L 244.757812 192.769531 C 244.277344 195.300781 243.699219 198.128906 244.117188 200.945312 C 244.605469 203.972656 246.195312 206.648438 247.664062 208.953125 C 245.667969 212.410156 243.585938 215.839844 241.402344 219.144531 C 240.398438 217.128906 239.230469 215.203125 238.089844 213.332031 C 237.542969 212.402344 236.890625 211.347656 235.992188 210.496094 C 235.976562 209.21875 235.988281 207.855469 235.988281 206.539062 C 235.996094 205.035156 236.007812 203.53125 235.976562 202.15625 C 235.976562 200.839844 235.929688 199.363281 235.488281 197.953125 C 235.0625 196.640625 234.300781 195.5 233.59375 194.476562 C 232.886719 193.449219 232.253906 192.492188 231.605469 191.582031 C 230.957031 190.667969 230.3125 189.753906 229.648438 188.742188 C 229.460938 188.445312 229.089844 188.28125 228.722656 188.398438 C 228.371094 188.476562 228.121094 188.820312 228.097656 189.1875 C 227.875 192.082031 227.839844 194.988281 228.042969 197.878906 C 228.148438 199.75 228.386719 201.945312 229.191406 203.988281 C 229.554688 204.90625 229.988281 205.75 230.480469 206.566406 C 226.859375 204.515625 223.035156 202.964844 218.972656 201.855469 C 218.675781 201.757812 218.363281 201.847656 218.15625 202.0625 C 217.945312 202.277344 217.847656 202.578125 217.894531 202.875 C 218.703125 206.664062 220.761719 209.628906 223.871094 211.375 C 224.355469 211.625 224.839844 211.871094 225.351562 212.035156 C 228.417969 213.015625 232.046875 212.246094 234.445312 211.507812 C 234.445312 211.507812 234.488281 211.519531 234.472656 211.5625 C 234.546875 211.632812 234.589844 211.648438 234.660156 211.71875 C 235.433594 212.386719 236.011719 213.371094 236.601562 214.316406 C 237.859375 216.410156 239.171875 218.621094 240.246094 220.847656 C 236.65625 226.054688 232.679688 230.996094 228.074219 235.410156 C 228.714844 233.261719 228.929688 230.972656 228.660156 228.722656 C 228.488281 227.207031 228.144531 225.78125 227.800781 224.355469 L 226.625 219.503906 C 226.550781 219.152344 226.253906 218.914062 225.898438 218.847656 C 225.542969 218.78125 225.191406 219 225.054688 219.285156 C 224.914062 219.570312 224.734375 219.84375 224.597656 220.128906 C 222.851562 223.382812 221.023438 226.753906 221.535156 230.589844 C 221.734375 232.019531 222.234375 233.402344 222.714844 234.683594 C 222.980469 235.476562 223.496094 236.207031 224.015625 236.9375 C 224.332031 237.414062 224.664062 237.851562 224.894531 238.300781 C 218.726562 243.484375 211.824219 247.585938 204.121094 251.996094 C 200.382812 254.144531 196.445312 256.464844 192.71875 258.710938 C 187.042969 262.074219 181.179688 265.566406 175.441406 268.675781 C 187.027344 230.953125 196.75 192.304688 204.503906 153.496094 C 208.371094 153.886719 213.429688 154.230469 217.039062 151.902344 C 218.234375 151.105469 219.382812 150.011719 220.582031 148.464844 C 222.015625 146.617188 223.15625 144.675781 224.160156 142.40625 C 224.300781 142.121094 224.226562 141.769531 224.023438 141.515625 C 223.824219 141.265625 223.480469 141.15625 223.183594 141.203125 C 215.207031 142.933594 209.324219 145.761719 205.195312 149.855469 C 206.480469 143.347656 207.6875 136.765625 208.828125 130.257812 C 213.699219 126.636719 218.984375 123.617188 224.605469 121.320312 L 226.117188 125.707031 C 226.496094 126.867188 226.921875 128.039062 227.601562 129.148438 C 228.078125 129.867188 228.652344 130.566406 229.46875 131.394531 C 231.730469 133.574219 234.3125 135.34375 237.171875 136.539062 C 237.214844 136.554688 237.214844 136.554688 237.257812 136.566406 C 237.511719 136.648438 237.808594 136.601562 238.0625 136.398438 C 238.3125 136.199219 238.421875 135.855469 238.378906 135.558594 C 238.03125 133.707031 236.902344 130.332031 236.128906 128.628906 C 235.347656 126.964844 234.238281 125.574219 232.9375 124.359375 C 233.746094 124.476562 234.480469 124.523438 235.191406 124.511719 C 237.183594 124.445312 239.148438 124.035156 240.628906 123.664062 C 243.648438 122.886719 246.074219 122.0625 248.46875 121.039062 C 248.792969 120.90625 249 120.546875 248.980469 120.164062 C 248.964844 119.78125 248.675781 119.503906 248.335938 119.394531 C 244.601562 118.4375 240.628906 117.496094 236.605469 117.292969 C 235.074219 117.226562 233.617188 117.230469 232.246094 117.40625 C 233.820312 116.449219 235.292969 115.367188 236.46875 114.046875 C 240.003906 110.1875 242.136719 104.984375 243.851562 100.355469 C 243.972656 99.96875 243.871094 99.558594 243.515625 99.351562 C 243.214844 99.113281 242.734375 99.148438 242.453125 99.4375 C 240.882812 100.816406 239.042969 102.019531 237.300781 103.203125 C 235.644531 104.273438 233.972656 105.386719 232.433594 106.683594 C 228.449219 110.027344 225.574219 114.613281 224.246094 119.652344 C 218.949219 121.816406 213.902344 124.535156 209.226562 127.84375 C 209.507812 126.378906 209.730469 124.945312 210.011719 123.480469 C 210.976562 117.953125 211.859375 112.394531 212.757812 106.941406 L 221.660156 104.371094 C 223.566406 103.851562 225.496094 103.246094 227.3125 102.269531 C 230.828125 100.382812 233.339844 97.230469 235.761719 93.910156 C 236.515625 92.878906 237.210938 91.878906 237.851562 90.90625 C 238.308594 90.203125 238.769531 89.503906 239.285156 88.773438 C 239.519531 88.472656 239.472656 88.035156 239.242188 87.726562 C 239.011719 87.414062 238.574219 87.320312 238.25 87.453125 L 230.53125 90.730469 C 227.757812 91.914062 224.882812 93.113281 222.355469 94.992188 C 220.460938 96.363281 218.855469 98.015625 217.300781 99.636719 L 213.246094 103.800781 C 214.117188 98.429688 214.929688 93.089844 215.734375 87.929688 C 215.761719 87.84375 215.734375 87.789062 215.71875 87.691406 C 216.3125 86.703125 216.925781 85.675781 217.59375 84.617188 C 219.675781 81.328125 221.789062 77.957031 222.835938 74.242188 C 224.859375 67.027344 224.242188 59.25 223.722656 52.351562 C 223.703125 51.96875 223.390625 51.632812 222.992188 51.554688 C 222.582031 51.515625 222.230469 51.734375 222.0625 52.105469 L 216.878906 66.265625 C 216.195312 68.117188 215.496094 70.011719 215.007812 71.976562 C 213.722656 77.027344 213.730469 82.300781 213.835938 87.699219 C 213.835938 87.84375 213.894531 87.953125 213.953125 88.066406 C 213.242188 92.640625 212.53125 97.359375 211.769531 102.105469 C 209.953125 97.195312 207.535156 92.558594 205.132812 88.027344 C 205.832031 84.8125 206.699219 80.476562 206.335938 77.207031 C 205.6875 71.445312 202.023438 66.742188 198.832031 62.617188 C 198.601562 62.308594 198.203125 62.226562 197.839844 62.34375 C 197.472656 62.464844 197.261719 62.820312 197.28125 63.203125 L 198.386719 75.183594 C 198.546875 76.882812 198.695312 78.625 199.152344 80.277344 C 199.417969 81.210938 199.785156 82.125 200.164062 83 C 199.664062 82.652344 199.121094 82.292969 198.59375 82.027344 C 196.300781 80.824219 193.761719 80.25 191.320312 79.796875 C 189.816406 79.503906 188.34375 79.410156 186.914062 79.332031 C 185.808594 79.261719 184.703125 79.1875 183.582031 79.019531 C 183.171875 78.984375 182.820312 79.199219 182.652344 79.570312 C 182.53125 79.953125 182.636719 80.363281 182.976562 80.617188 L 190.011719 85.359375 C 191.796875 86.539062 193.609375 87.777344 195.667969 88.53125 C 195.882812 88.601562 196.09375 88.667969 196.308594 88.738281 C 198.867188 89.554688 201.640625 89.6875 204.105469 89.769531 C 206.785156 94.910156 209.507812 100.207031 211.144531 105.8125 C 210.207031 111.539062 209.300781 117.320312 208.304688 123.078125 C 208.199219 123.703125 208.082031 124.371094 207.976562 124.996094 C 207.855469 124.34375 207.777344 123.707031 207.742188 123.226562 C 207.585938 121.953125 207.441406 120.632812 206.960938 119.351562 C 205.71875 116.035156 202.691406 113.890625 200.238281 112.164062 L 196.625 109.644531 C 196.3125 109.449219 195.945312 109.425781 195.648438 109.617188 C 195.355469 109.804688 195.230469 110.1875 195.304688 110.542969 L 196.882812 117.070312 C 197.167969 118.246094 197.464844 119.515625 197.988281 120.671875 C 199.28125 123.675781 201.839844 125.8125 204.101562 127.710938 L 207.058594 130.210938 C 206.023438 136.09375 204.90625 141.949219 203.785156 147.804688 C 202.96875 144.484375 201.796875 141.097656 199.695312 138.261719 C 198.617188 136.785156 197.328125 135.527344 196.082031 134.28125 L 191.238281 129.4375 C 190.996094 129.171875 190.585938 129.132812 190.261719 129.265625 C 189.9375 129.398438 189.730469 129.753906 189.761719 130.09375 C 189.8125 130.816406 189.863281 131.539062 189.914062 132.261719 C 190.070312 134.570312 190.195312 136.964844 190.648438 139.371094 C 190.933594 140.828125 191.234375 142.382812 191.890625 143.863281 C 192.441406 145.074219 193.277344 146.28125 194.484375 147.65625 C 195.386719 148.652344 196.613281 149.515625 197.925781 150.261719 C 192.75 149.550781 187.421875 150.203125 182.621094 152.292969 C 182.339844 152.4375 182.113281 152.695312 182.105469 153.019531 C 182.09375 153.347656 182.238281 153.628906 182.511719 153.808594 C 183.007812 154.15625 183.496094 154.546875 183.980469 154.9375 C 184.652344 155.484375 185.355469 156.085938 186.195312 156.539062 C 187.191406 157.09375 188.289062 157.632812 189.480469 158.015625 C 189.652344 158.070312 189.863281 158.136719 190.035156 158.191406 C 194.367188 159.339844 198.945312 157.507812 202.425781 154.996094 C 194.617188 193.832031 184.824219 232.414062 173.191406 270.121094 C 173.082031 270.464844 173.203125 270.832031 173.457031 271.054688 C 173.53125 271.125 173.660156 271.164062 173.742188 271.191406 C 173.957031 271.261719 174.195312 271.242188 174.421875 271.128906 C 180.765625 267.742188 187.273438 263.84375 193.585938 260.117188 C 197.351562 257.882812 201.234375 255.59375 204.972656 253.445312 C 212.621094 249.066406 219.578125 244.933594 225.789062 239.761719 C 226.707031 241.890625 228.597656 243.910156 230.632812 244.746094 C 230.875 244.871094 231.128906 244.953125 231.386719 245.035156 C 232.792969 245.484375 234.265625 245.578125 235.839844 245.660156 C 238.289062 245.78125 240.15625 245.671875 241.496094 245.300781 C 241.808594 245.210938 242.074219 244.96875 242.140625 244.613281 C 242.191406 244.300781 242.074219 243.933594 241.804688 243.753906 L 236.695312 240.1875 C 235.582031 239.410156 234.425781 238.617188 233.046875 238.082031 C 231.539062 237.503906 229.964844 237.425781 228.453125 237.460938 C 232.90625 233.375 236.757812 228.816406 240.226562 223.992188 C 240.136719 227.070312 240.496094 230.199219 241.339844 233.152344 C 242.535156 237.347656 244.605469 241.164062 246.644531 244.921875 C 246.761719 245.148438 246.917969 245.246094 247.128906 245.3125 C 247.300781 245.367188 247.484375 245.378906 247.640625 245.335938 C 248.007812 245.214844 248.269531 244.832031 248.253906 244.449219 C 248.089844 242.605469 248.164062 240.605469 248.269531 238.519531 C 248.429688 235.371094 248.574219 232.121094 247.746094 229.128906 C 247.214844 227.261719 246.320312 225.660156 245.195312 224.171875 C 245.753906 224.488281 246.378906 224.734375 246.976562 224.925781 C 247.058594 224.953125 247.144531 224.980469 247.1875 224.996094 C 250.753906 226.039062 254.582031 224.347656 257.371094 223.117188 C 257.695312 222.988281 257.890625 222.671875 257.871094 222.289062 C 257.839844 221.949219 257.609375 221.640625 257.324219 221.503906 C 254.792969 220.601562 252.164062 219.710938 249.441406 219.265625 C 247.300781 218.910156 245.277344 218.921875 243.46875 219.285156 C 245.484375 216.210938 247.386719 213.054688 249.246094 209.882812 C 253.191406 209.449219 257.128906 209.625 260.976562 210.523438 C 261.425781 211.609375 261.808594 212.769531 262.148438 213.910156 C 262.25 214.320312 262.355469 214.730469 262.5 215.15625 C 262.828125 216.484375 263.199219 217.824219 263.820312 219.109375 C 265.417969 222.488281 268.433594 224.816406 271.660156 227.074219 C 271.730469 227.144531 271.816406 227.171875 271.902344 227.199219 C 272.113281 227.265625 272.355469 227.25 272.578125 227.132812 C 272.859375 226.988281 273.054688 226.671875 273.023438 226.332031 C 272.988281 225.707031 272.820312 224.902344 272.699219 224.109375 C 272.550781 223.402344 272.414062 222.652344 272.394531 222.128906 C 272.28125 219.976562 272.125 217.523438 271.027344 215.382812 C 270.386719 214.144531 269.441406 213.136719 268.398438 212.285156 C 270.753906 212.707031 273.089844 212.890625 275.28125 212.507812 C 280.296875 211.664062 284.09375 208.308594 287.820312 205.027344 L 288.265625 204.652344 C 288.335938 204.441406 288.414062 204.042969 288.328125 203.730469 Z M 224.742188 209.816406 C 222.476562 208.527344 220.824219 206.496094 219.972656 203.867188 C 224.605469 205.253906 229.003906 207.367188 232.984375 210.050781 C 230.65625 210.71875 227.207031 211.21875 224.742188 209.816406 Z M 229.753906 197.671875 C 229.628906 195.703125 229.605469 193.71875 229.667969 191.761719 C 229.855469 192.058594 230.058594 192.308594 230.257812 192.5625 C 230.90625 193.476562 231.554688 194.390625 232.21875 195.402344 C 232.851562 196.355469 233.558594 197.382812 233.878906 198.425781 C 234.261719 199.585938 234.277344 200.859375 234.292969 202.136719 C 234.324219 203.511719 234.3125 205.015625 234.300781 206.519531 C 234.308594 207.226562 234.320312 207.9375 234.269531 208.671875 C 232.863281 207.046875 231.542969 205.304688 230.769531 203.316406 C 230.082031 201.496094 229.886719 199.457031 229.753906 197.671875 Z M 234.523438 129.242188 C 235.046875 130.398438 235.734375 132.359375 236.234375 134.027344 C 234.183594 132.949219 232.273438 131.582031 230.667969 129.988281 C 229.910156 129.273438 229.40625 128.644531 229.03125 128.054688 C 228.484375 127.125 228.074219 126.050781 227.75 125.007812 L 226.78125 122.15625 C 227.351562 122.433594 227.921875 122.707031 228.492188 122.984375 C 231.015625 124.636719 233.261719 126.582031 234.523438 129.242188 Z M 236.511719 118.910156 C 239.386719 119.027344 242.222656 119.558594 245.359375 120.328125 C 243.808594 120.914062 242.144531 121.417969 240.199219 121.925781 C 238.816406 122.28125 236.996094 122.6875 235.15625 122.714844 C 233.398438 122.765625 231.257812 122.269531 229.265625 121.441406 C 228.566406 120.984375 227.851562 120.566406 227.140625 120.152344 C 229.859375 119.136719 233 118.730469 236.511719 118.910156 Z M 233.519531 107.832031 C 234.992188 106.609375 236.664062 105.496094 238.265625 104.453125 C 239.222656 103.816406 240.164062 103.222656 241.132812 102.542969 C 239.644531 106.164062 237.835938 109.917969 235.234375 112.757812 C 233 115.199219 229.648438 116.859375 226.425781 118.417969 C 226.425781 118.417969 226.371094 118.445312 226.371094 118.445312 C 227.722656 114.359375 230.226562 110.640625 233.519531 107.832031 Z M 216.667969 72.367188 C 217.171875 70.5 217.8125 68.636719 218.488281 66.828125 L 222.339844 56.382812 C 222.734375 62.207031 222.820312 68.117188 221.214844 73.722656 C 220.25 77.183594 218.164062 80.46875 216.164062 83.644531 C 215.957031 84 215.71875 84.300781 215.511719 84.660156 C 215.449219 80.449219 215.640625 76.320312 216.667969 72.367188 Z M 200.082031 75.019531 L 199.253906 66 C 201.742188 69.382812 204.121094 73.109375 204.640625 77.371094 C 204.921875 79.863281 204.394531 83.128906 203.835938 85.917969 C 202.566406 84.003906 201.425781 81.992188 200.804688 79.816406 C 200.359375 78.261719 200.230469 76.621094 200.082031 75.019531 Z M 196.285156 86.894531 C 194.394531 86.195312 192.65625 85.027344 191 83.886719 L 186.75 81.019531 C 186.789062 81.035156 186.789062 81.035156 186.832031 81.046875 C 188.265625 81.128906 189.636719 81.238281 191.058594 81.503906 C 193.453125 81.941406 195.78125 82.449219 197.863281 83.582031 C 199.757812 84.566406 201.6875 86.3125 202.9375 87.984375 C 200.660156 87.914062 198.378906 87.703125 196.285156 86.894531 Z M 218.519531 100.824219 C 220.042969 99.289062 221.597656 97.667969 223.378906 96.351562 C 225.765625 94.621094 228.539062 93.4375 231.199219 92.308594 L 236.214844 90.144531 C 235.601562 91.03125 235.046875 91.890625 234.378906 92.808594 C 232.050781 95.972656 229.695312 98.9375 226.472656 100.636719 C 224.828125 101.523438 222.964844 102.058594 221.160156 102.5625 L 215.105469 104.300781 Z M 221.804688 143.160156 C 221.046875 144.660156 220.210938 145.945312 219.179688 147.265625 C 218.078125 148.65625 217.097656 149.660156 216.042969 150.3125 C 213.207031 152.136719 209.058594 152.03125 205.585938 151.722656 C 209.191406 147.792969 214.507812 144.972656 221.804688 143.160156 Z M 205.203125 126.320312 C 203.101562 124.519531 200.726562 122.535156 199.550781 119.902344 C 199.085938 118.859375 198.800781 117.683594 198.535156 116.609375 L 197.507812 112.328125 L 199.277344 113.550781 C 202.03125 115.515625 204.417969 117.3125 205.367188 119.925781 C 205.777344 120.996094 205.902344 122.214844 206.046875 123.390625 C 206.140625 124.265625 206.367188 125.46875 206.550781 126.65625 C 206.597656 126.953125 206.671875 127.308594 206.71875 127.605469 Z M 193.480469 143.148438 C 192.902344 141.878906 192.613281 140.421875 192.34375 139.0625 C 191.933594 136.816406 191.796875 134.605469 191.65625 132.253906 L 194.90625 135.457031 C 196.125 136.648438 197.371094 137.894531 198.347656 139.242188 C 200.765625 142.554688 201.875 146.722656 202.742188 150.625 C 200.238281 149.496094 197.363281 148.199219 195.800781 146.476562 C 194.695312 145.230469 193.945312 144.191406 193.480469 143.148438 Z M 190.453125 156.441406 C 189.203125 156.089844 188.066406 155.539062 186.980469 154.957031 C 186.296875 154.597656 185.710938 154.082031 185.082031 153.550781 C 184.96875 153.464844 184.824219 153.324219 184.710938 153.242188 C 190.292969 151.214844 196.535156 151.089844 202.1875 152.945312 C 197.6875 156.589844 193.222656 157.1875 190.453125 156.441406 Z M 258.4375 188.480469 C 259.453125 187.207031 260.730469 186.15625 261.964844 185.089844 L 270.21875 178.078125 C 269.996094 178.617188 269.722656 179.191406 269.5 179.730469 C 268.785156 181.386719 268.066406 183.039062 267.394531 184.707031 C 266.5 186.917969 265.59375 189.167969 264.34375 191.167969 C 262.480469 194.199219 258.792969 197.070312 254.328125 199.125 C 255.050781 195.402344 255.980469 191.460938 258.4375 188.480469 Z M 245.796875 200.683594 C 245.414062 198.207031 245.921875 195.589844 246.386719 193.105469 L 246.828125 190.84375 C 249.503906 195.558594 250.125 201.691406 248.363281 206.917969 C 247.222656 205.046875 246.164062 202.917969 245.796875 200.683594 Z M 224.292969 234.011719 C 223.839844 232.785156 223.386719 231.558594 223.230469 230.28125 C 222.828125 227.425781 224.082031 224.671875 225.496094 222.015625 L 226.148438 224.671875 C 226.464844 226.042969 226.820312 227.429688 226.992188 228.800781 C 227.289062 231.394531 226.898438 234.09375 225.851562 236.488281 C 225.691406 236.25 225.5625 236.066406 225.402344 235.828125 C 224.945312 235.207031 224.527344 234.605469 224.292969 234.011719 Z M 232.355469 239.648438 C 233.492188 240.058594 234.5625 240.824219 235.605469 241.535156 L 238.945312 243.875 C 238.082031 243.929688 237.050781 243.925781 235.886719 243.886719 C 234.175781 243.808594 232.617188 243.6875 231.25 243.109375 C 229.671875 242.464844 228.125 240.839844 227.339844 239.175781 C 229.023438 239.054688 230.804688 239.058594 232.355469 239.648438 Z M 245.980469 229.503906 C 246.761719 232.203125 246.617188 235.308594 246.453125 238.316406 C 246.421875 239.15625 246.386719 239.992188 246.355469 240.828125 C 244.992188 238.179688 243.703125 235.460938 242.890625 232.566406 C 242.003906 229.457031 241.695312 226.15625 241.925781 222.9375 C 243.707031 225.011719 245.273438 227.019531 245.980469 229.503906 Z M 249.050781 220.929688 C 250.921875 221.246094 252.726562 221.777344 254.558594 222.359375 C 252.304688 223.242188 249.824219 223.953125 247.59375 223.289062 C 246.511719 222.992188 245.457031 222.324219 244.472656 221.726562 C 244.203125 221.546875 243.832031 221.378906 243.546875 221.242188 C 243.421875 221.203125 243.265625 221.105469 243.136719 221.0625 C 244.871094 220.628906 246.851562 220.605469 249.050781 220.929688 Z M 270.496094 222.183594 C 270.53125 222.804688 270.699219 223.613281 270.820312 224.402344 C 270.820312 224.402344 270.808594 224.445312 270.847656 224.460938 C 268.492188 222.71875 266.375 220.816406 265.242188 218.335938 C 264.71875 217.183594 264.394531 215.996094 264.066406 214.667969 C 263.964844 214.257812 263.828125 213.789062 263.726562 213.378906 C 263.519531 212.703125 263.3125 212.023438 263.066406 211.332031 C 265.683594 212.40625 268.160156 213.761719 269.378906 216.128906 C 270.25 217.960938 270.375 220.214844 270.496094 222.183594 Z M 274.792969 210.796875 C 271.613281 211.335938 267.953125 210.589844 264.515625 209.585938 L 272.539062 206.828125 C 274.652344 206.09375 276.867188 205.339844 279.085938 205.015625 C 281.121094 204.675781 283.269531 204.703125 285.367188 204.761719 C 282.144531 207.5 278.820312 210.109375 274.792969 210.796875 Z M 274.792969 210.796875 " fill-opacity="1" fill-rule="nonzero"/></g></g></g></g><g clip-path="url(#id5)"><g clip-path="url(#id6)"><g clip-path="url(#id7)"><g clip-path="url(#id8)"><path fill="#000000" d="M 58.925781 203.636719 C 59.058594 203.3125 59.355469 203.078125 59.683594 203.066406 C 62.542969 202.910156 65.503906 202.765625 68.429688 203.246094 C 70.800781 203.621094 73.070312 204.402344 75.242188 205.171875 L 85.785156 208.777344 C 89.503906 207.921875 93.257812 207.621094 97.03125 207.972656 C 95.730469 205.65625 94.445312 203.382812 93.199219 201.097656 C 90.328125 199.894531 84.460938 196.960938 81.4375 192.042969 C 80.109375 189.925781 79.175781 187.585938 78.253906 185.292969 C 77.582031 183.625 76.867188 181.96875 76.152344 180.3125 C 75.453125 178.703125 74.722656 177.003906 74.050781 175.335938 C 73.886719 174.964844 74.035156 174.542969 74.332031 174.304688 C 74.632812 174.070312 75.113281 174.105469 75.378906 174.347656 L 86.386719 183.691406 C 87.675781 184.785156 89.035156 185.953125 90.132812 187.34375 C 93.171875 191.128906 94.097656 196.246094 94.878906 200.328125 C 94.90625 200.414062 94.890625 200.511719 94.863281 200.566406 C 95.320312 201.410156 95.777344 202.253906 96.273438 203.082031 C 95.707031 197.757812 97.066406 192.148438 100.132812 188.066406 C 100.335938 187.8125 100.660156 187.660156 101.015625 187.738281 C 101.367188 187.8125 101.589844 188.070312 101.65625 188.425781 L 102.507812 192.722656 C 102.984375 195.25 103.558594 198.082031 103.140625 200.894531 C 102.648438 203.921875 101.058594 206.59375 99.582031 208.898438 C 101.578125 212.359375 103.65625 215.792969 105.835938 219.097656 C 106.839844 217.082031 108.011719 215.15625 109.152344 213.289062 C 109.703125 212.359375 110.351562 211.304688 111.257812 210.453125 C 111.273438 209.175781 111.261719 207.816406 111.265625 206.496094 C 111.253906 204.992188 111.246094 203.492188 111.277344 202.117188 C 111.28125 200.796875 111.328125 199.324219 111.769531 197.910156 C 112.199219 196.597656 112.960938 195.460938 113.667969 194.4375 C 114.375 193.410156 115.011719 192.457031 115.660156 191.542969 C 116.308594 190.632812 116.957031 189.71875 117.621094 188.707031 C 117.808594 188.410156 118.179688 188.246094 118.546875 188.367188 C 118.898438 188.441406 119.148438 188.785156 119.171875 189.152344 C 119.390625 192.050781 119.421875 194.957031 119.214844 197.847656 C 119.109375 199.714844 118.867188 201.910156 118.0625 203.957031 C 117.695312 204.871094 117.261719 205.714844 116.769531 206.53125 C 120.390625 204.484375 124.21875 202.933594 128.28125 201.828125 C 128.582031 201.734375 128.890625 201.824219 129.101562 202.039062 C 129.308594 202.253906 129.40625 202.554688 129.359375 202.851562 C 128.546875 206.640625 126.484375 209.601562 123.375 211.34375 C 122.890625 211.59375 122.40625 211.84375 121.894531 212.003906 C 118.824219 212.984375 115.195312 212.210938 112.800781 211.46875 C 112.800781 211.46875 112.757812 211.480469 112.769531 211.523438 C 112.699219 211.59375 112.65625 211.605469 112.585938 211.675781 C 111.8125 212.347656 111.234375 213.332031 110.640625 214.273438 C 109.382812 216.367188 108.066406 218.574219 106.988281 220.800781 C 110.574219 226.011719 114.546875 230.957031 119.148438 235.375 C 118.507812 233.226562 118.296875 230.941406 118.566406 228.691406 C 118.742188 227.175781 119.085938 225.746094 119.429688 224.320312 L 120.609375 219.472656 C 120.6875 219.121094 120.984375 218.882812 121.339844 218.816406 C 121.695312 218.75 122.046875 218.96875 122.183594 219.253906 C 122.324219 219.539062 122.503906 219.8125 122.640625 220.097656 C 124.382812 223.355469 126.207031 226.726562 125.691406 230.5625 C 125.488281 231.992188 124.992188 233.375 124.507812 234.65625 C 124.242188 235.445312 123.722656 236.175781 123.203125 236.90625 C 122.886719 237.382812 122.554688 237.820312 122.324219 238.269531 C 128.484375 243.460938 135.382812 247.570312 143.085938 251.988281 C 146.820312 254.136719 150.753906 256.460938 154.476562 258.710938 C 160.152344 262.082031 166.011719 265.578125 171.746094 268.695312 C 160.199219 230.960938 150.515625 192.300781 142.800781 153.484375 C 138.929688 153.871094 133.875 154.210938 130.265625 151.878906 C 129.070312 151.082031 127.925781 149.988281 126.726562 148.441406 C 125.292969 146.589844 124.15625 144.648438 123.152344 142.378906 C 123.015625 142.09375 123.089844 141.738281 123.292969 141.488281 C 123.492188 141.234375 123.835938 141.125 124.132812 141.171875 C 132.105469 142.914062 137.988281 145.746094 142.109375 149.847656 C 140.835938 143.335938 139.632812 136.753906 138.496094 130.242188 C 133.632812 126.617188 128.347656 123.59375 122.730469 121.289062 L 121.214844 125.675781 C 120.832031 126.835938 120.40625 128.003906 119.726562 129.117188 C 119.25 129.832031 118.675781 130.535156 117.859375 131.359375 C 115.59375 133.539062 113.007812 135.304688 110.148438 136.496094 C 110.105469 136.511719 110.105469 136.511719 110.0625 136.523438 C 109.808594 136.605469 109.511719 136.558594 109.257812 136.355469 C 109.007812 136.15625 108.898438 135.8125 108.945312 135.515625 C 109.292969 133.664062 110.425781 130.289062 111.199219 128.585938 C 111.984375 126.921875 113.089844 125.535156 114.394531 124.320312 C 113.585938 124.4375 112.851562 124.484375 112.144531 124.472656 C 110.148438 124.402344 108.183594 123.992188 106.703125 123.617188 C 103.683594 122.835938 101.261719 122.007812 98.867188 120.984375 C 98.542969 120.851562 98.335938 120.492188 98.355469 120.109375 C 98.375 119.730469 98.660156 119.449219 99 119.339844 C 102.738281 118.386719 106.710938 117.449219 110.734375 117.25 C 112.265625 117.1875 113.722656 117.191406 115.09375 117.367188 C 113.519531 116.410156 112.046875 115.328125 110.875 114.003906 C 107.34375 110.140625 105.214844 104.9375 103.503906 100.304688 C 103.382812 99.921875 103.488281 99.511719 103.84375 99.304688 C 104.144531 99.066406 104.625 99.101562 104.90625 99.390625 C 106.472656 100.773438 108.3125 101.972656 110.050781 103.160156 C 111.707031 104.234375 113.378906 105.347656 114.917969 106.648438 C 118.894531 109.992188 121.765625 114.582031 123.089844 119.621094 C 128.386719 121.792969 133.433594 124.515625 138.101562 127.828125 C 137.824219 126.363281 137.601562 124.929688 137.324219 123.464844 C 136.359375 117.933594 135.484375 112.378906 134.589844 106.921875 L 125.691406 104.34375 C 123.789062 103.820312 121.855469 103.214844 120.042969 102.238281 C 116.527344 100.34375 114.019531 97.191406 111.601562 93.867188 C 110.847656 92.835938 110.152344 91.835938 109.515625 90.859375 C 109.054688 90.160156 108.597656 89.457031 108.085938 88.730469 C 107.847656 88.425781 107.894531 87.988281 108.125 87.679688 C 108.355469 87.371094 108.796875 87.277344 109.121094 87.410156 L 116.835938 90.695312 C 119.609375 91.882812 122.480469 93.085938 125.003906 94.964844 C 126.898438 96.335938 128.503906 97.988281 130.054688 99.613281 L 134.109375 103.78125 C 133.242188 98.410156 132.433594 93.066406 131.636719 87.910156 C 131.609375 87.824219 131.636719 87.769531 131.652344 87.667969 C 131.054688 86.683594 130.445312 85.652344 129.78125 84.59375 C 127.699219 81.304688 125.589844 77.929688 124.546875 74.214844 C 122.53125 66.996094 123.15625 59.222656 123.679688 52.324219 C 123.699219 51.941406 124.015625 51.605469 124.414062 51.527344 C 124.824219 51.488281 125.175781 51.707031 125.339844 52.078125 L 130.511719 66.242188 C 131.195312 68.097656 131.890625 69.992188 132.375 71.957031 C 133.65625 77.007812 133.644531 82.28125 133.535156 87.679688 C 133.53125 87.824219 133.476562 87.933594 133.417969 88.046875 C 134.121094 92.625 134.828125 97.339844 135.585938 102.085938 C 137.40625 97.179688 139.828125 92.546875 142.234375 88.015625 C 141.542969 84.800781 140.675781 80.464844 141.042969 77.195312 C 141.699219 71.433594 145.367188 66.734375 148.5625 62.609375 C 148.792969 62.300781 149.191406 62.222656 149.558594 62.339844 C 149.921875 62.460938 150.132812 62.816406 150.113281 63.199219 L 148.996094 75.179688 C 148.832031 76.878906 148.683594 78.621094 148.222656 80.273438 C 147.957031 81.203125 147.589844 82.121094 147.210938 82.996094 C 147.710938 82.648438 148.253906 82.285156 148.78125 82.023438 C 151.074219 80.824219 153.617188 80.25 156.058594 79.800781 C 157.5625 79.511719 159.035156 79.417969 160.464844 79.339844 C 161.570312 79.269531 162.675781 79.199219 163.796875 79.03125 C 164.207031 78.992188 164.558594 79.210938 164.722656 79.582031 C 164.847656 79.964844 164.742188 80.375 164.398438 80.625 L 157.359375 85.363281 C 155.574219 86.542969 153.761719 87.78125 151.699219 88.53125 C 151.484375 88.597656 151.273438 88.667969 151.058594 88.734375 C 148.5 89.550781 145.726562 89.679688 143.261719 89.757812 C 140.578125 94.898438 137.847656 100.191406 136.203125 105.796875 C 137.136719 111.523438 138.039062 117.304688 139.027344 123.0625 C 139.132812 123.6875 139.25 124.355469 139.355469 124.980469 C 139.480469 124.332031 139.558594 123.695312 139.59375 123.210938 C 139.75 121.9375 139.894531 120.621094 140.378906 119.339844 C 141.625 116.023438 144.652344 113.882812 147.109375 112.160156 L 150.722656 109.644531 C 151.035156 109.449219 151.402344 109.425781 151.699219 109.613281 C 151.992188 109.800781 152.117188 110.1875 152.039062 110.539062 L 150.457031 117.070312 C 150.171875 118.242188 149.875 119.511719 149.347656 120.667969 C 148.050781 123.671875 145.488281 125.804688 143.230469 127.699219 L 140.265625 130.199219 C 141.296875 136.082031 142.410156 141.9375 143.523438 147.796875 C 144.34375 144.476562 145.519531 141.089844 147.625 138.253906 C 148.703125 136.78125 149.996094 135.523438 151.242188 134.277344 L 156.089844 129.441406 C 156.332031 129.175781 156.742188 129.136719 157.066406 129.269531 C 157.390625 129.402344 157.597656 129.757812 157.566406 130.097656 C 157.515625 130.820312 157.464844 131.542969 157.410156 132.265625 C 157.253906 134.574219 157.125 136.96875 156.667969 139.375 C 156.382812 140.828125 156.078125 142.386719 155.421875 143.863281 C 154.871094 145.078125 154.03125 146.285156 152.828125 147.65625 C 151.921875 148.652344 150.695312 149.511719 149.382812 150.261719 C 154.558594 149.550781 159.886719 150.207031 164.6875 152.304688 C 164.96875 152.449219 165.191406 152.707031 165.199219 153.035156 C 165.210938 153.359375 165.066406 153.640625 164.792969 153.820312 C 164.292969 154.167969 163.808594 154.558594 163.320312 154.949219 C 162.648438 155.492188 161.949219 156.09375 161.105469 156.550781 C 160.109375 157.101562 159.011719 157.640625 157.816406 158.019531 C 157.648438 158.074219 157.433594 158.140625 157.265625 158.195312 C 152.933594 159.339844 148.355469 157.503906 144.875 154.988281 C 152.644531 193.832031 162.402344 232.421875 173.992188 270.144531 C 174.101562 270.484375 173.984375 270.851562 173.726562 271.074219 C 173.65625 271.144531 173.527344 271.1875 173.441406 271.214844 C 173.230469 271.28125 172.988281 271.261719 172.765625 271.148438 C 166.421875 267.753906 159.917969 263.847656 153.609375 260.117188 C 149.847656 257.882812 145.96875 255.585938 142.230469 253.4375 C 134.585938 249.046875 127.632812 244.910156 121.425781 239.730469 C 120.507812 241.859375 118.613281 243.875 116.578125 244.710938 C 116.335938 244.835938 116.082031 244.917969 115.824219 245 C 114.417969 245.445312 112.945312 245.539062 111.371094 245.617188 C 108.921875 245.738281 107.054688 245.628906 105.714844 245.253906 C 105.40625 245.164062 105.140625 244.921875 105.074219 244.566406 C 105.019531 244.253906 105.136719 243.886719 105.410156 243.703125 L 110.523438 240.148438 C 111.636719 239.367188 112.792969 238.578125 114.171875 238.042969 C 115.679688 237.46875 117.253906 237.390625 118.765625 237.425781 C 114.316406 233.335938 110.46875 228.773438 107.007812 223.949219 C 107.09375 227.027344 106.730469 230.15625 105.882812 233.105469 C 104.683594 237.300781 102.609375 241.113281 100.566406 244.871094 C 100.453125 245.097656 100.292969 245.191406 100.082031 245.261719 C 99.910156 245.316406 99.726562 245.328125 99.570312 245.28125 C 99.203125 245.164062 98.941406 244.777344 98.960938 244.394531 C 99.125 242.554688 99.050781 240.554688 98.949219 238.46875 C 98.792969 235.316406 98.648438 232.070312 99.480469 229.074219 C 100.015625 227.210938 100.914062 225.605469 102.035156 224.121094 C 101.480469 224.4375 100.855469 224.683594 100.257812 224.875 C 100.171875 224.902344 100.085938 224.929688 100.042969 224.941406 C 96.476562 225.984375 92.648438 224.285156 89.863281 223.054688 C 89.539062 222.921875 89.34375 222.609375 89.363281 222.226562 C 89.394531 221.886719 89.625 221.578125 89.910156 221.441406 C 92.441406 220.539062 95.070312 219.65625 97.796875 219.210938 C 99.9375 218.859375 101.960938 218.871094 103.769531 219.238281 C 101.753906 216.160156 99.855469 213 98 209.828125 C 94.054688 209.390625 90.117188 209.5625 86.273438 210.457031 C 85.820312 211.542969 85.4375 212.699219 85.097656 213.84375 C 84.992188 214.253906 84.886719 214.664062 84.738281 215.085938 C 84.410156 216.414062 84.039062 217.757812 83.414062 219.039062 C 81.816406 222.417969 78.796875 224.746094 75.570312 226.996094 C 75.5 227.066406 75.414062 227.09375 75.328125 227.121094 C 75.117188 227.1875 74.875 227.171875 74.648438 227.054688 C 74.367188 226.910156 74.175781 226.59375 74.207031 226.253906 C 74.242188 225.628906 74.410156 224.824219 74.53125 224.03125 C 74.683594 223.324219 74.820312 222.574219 74.839844 222.050781 C 74.953125 219.898438 75.113281 217.449219 76.214844 215.308594 C 76.855469 214.070312 77.800781 213.0625 78.847656 212.210938 C 76.492188 212.632812 74.152344 212.8125 71.964844 212.425781 C 66.949219 211.578125 63.15625 208.21875 59.433594 204.933594 L 58.984375 204.558594 C 58.917969 204.347656 58.835938 203.949219 58.925781 203.636719 Z M 122.503906 209.789062 C 124.769531 208.5 126.425781 206.46875 127.28125 203.84375 C 122.648438 205.222656 118.246094 207.332031 114.261719 210.011719 C 116.589844 210.683594 120.035156 211.183594 122.503906 209.789062 Z M 117.507812 197.636719 C 117.628906 195.667969 117.65625 193.683594 117.597656 191.726562 C 117.410156 192.023438 117.207031 192.273438 117.003906 192.527344 C 116.355469 193.4375 115.707031 194.351562 115.042969 195.363281 C 114.410156 196.320312 113.703125 197.34375 113.378906 198.386719 C 112.996094 199.546875 112.980469 200.820312 112.960938 202.097656 C 112.929688 203.472656 112.941406 204.976562 112.949219 206.476562 C 112.941406 207.1875 112.929688 207.894531 112.976562 208.632812 C 114.386719 207.007812 115.710938 205.269531 116.484375 203.28125 C 117.175781 201.460938 117.371094 199.421875 117.507812 197.636719 Z M 112.804688 129.203125 C 112.28125 130.359375 111.589844 132.320312 111.085938 133.984375 C 113.140625 132.910156 115.054688 131.546875 116.660156 129.953125 C 117.417969 129.238281 117.921875 128.609375 118.296875 128.019531 C 118.847656 127.089844 119.257812 126.019531 119.582031 124.972656 L 120.554688 122.125 C 119.984375 122.398438 119.414062 122.675781 118.84375 122.949219 C 116.316406 124.601562 114.070312 126.542969 112.804688 129.203125 Z M 110.828125 118.867188 C 107.953125 118.984375 105.113281 119.511719 101.976562 120.273438 C 103.527344 120.863281 105.191406 121.371094 107.136719 121.878906 C 108.519531 122.238281 110.339844 122.648438 112.179688 122.671875 C 113.933594 122.726562 116.078125 122.230469 118.070312 121.40625 C 118.769531 120.949219 119.484375 120.535156 120.195312 120.121094 C 117.476562 119.101562 114.339844 118.691406 110.828125 118.867188 Z M 113.828125 107.792969 C 112.359375 106.566406 110.6875 105.453125 109.085938 104.410156 C 108.132812 103.773438 107.191406 103.179688 106.222656 102.5 C 107.707031 106.121094 109.511719 109.875 112.109375 112.71875 C 114.34375 115.160156 117.691406 116.824219 120.910156 118.386719 C 120.910156 118.386719 120.96875 118.414062 120.96875 118.414062 C 119.617188 114.328125 117.117188 110.605469 113.828125 107.792969 Z M 130.714844 72.34375 C 130.214844 70.480469 129.574219 68.613281 128.902344 66.800781 L 125.058594 56.355469 C 124.660156 62.175781 124.570312 68.089844 126.167969 73.699219 C 127.128906 77.15625 129.210938 80.445312 131.207031 83.621094 C 131.417969 83.980469 131.652344 84.28125 131.859375 84.636719 C 131.929688 80.425781 131.742188 76.300781 130.714844 72.34375 Z M 147.300781 75.015625 L 148.136719 65.992188 C 145.644531 69.375 143.261719 73.101562 142.742188 77.359375 C 142.453125 79.851562 142.976562 83.121094 143.535156 85.90625 C 144.808594 83.996094 145.949219 81.984375 146.574219 79.808594 C 147.019531 78.257812 147.152344 76.613281 147.300781 75.015625 Z M 151.082031 86.890625 C 152.976562 86.195312 154.71875 85.027344 156.375 83.890625 L 160.628906 81.027344 C 160.585938 81.042969 160.585938 81.042969 160.542969 81.054688 C 159.113281 81.132812 157.738281 81.242188 156.320312 81.507812 C 153.921875 81.941406 151.59375 82.445312 149.511719 83.582031 C 147.617188 84.558594 145.683594 86.304688 144.429688 87.976562 C 146.710938 87.90625 148.992188 87.699219 151.082031 86.890625 Z M 128.835938 100.800781 C 127.3125 99.261719 125.761719 97.640625 123.984375 96.324219 C 121.597656 94.589844 118.824219 93.402344 116.164062 92.273438 L 111.152344 90.105469 C 111.765625 90.992188 112.320312 91.851562 112.988281 92.765625 C 115.308594 95.933594 117.664062 98.902344 120.882812 100.605469 C 122.53125 101.492188 124.390625 102.03125 126.195312 102.535156 L 132.246094 104.28125 Z M 125.507812 143.132812 C 126.265625 144.632812 127.101562 145.921875 128.128906 147.242188 C 129.230469 148.632812 130.207031 149.636719 131.261719 150.289062 C 134.097656 152.117188 138.246094 152.019531 141.71875 151.710938 C 138.117188 147.777344 132.800781 144.953125 125.507812 143.132812 Z M 142.128906 126.308594 C 144.234375 124.511719 146.609375 122.53125 147.789062 119.894531 C 148.253906 118.851562 148.539062 117.679688 148.808594 116.605469 L 149.839844 112.324219 L 148.066406 113.546875 C 145.308594 115.507812 142.921875 117.304688 141.96875 119.914062 C 141.558594 120.984375 141.429688 122.203125 141.289062 123.378906 C 141.191406 124.253906 140.964844 125.457031 140.78125 126.644531 C 140.734375 126.941406 140.65625 127.296875 140.613281 127.59375 Z M 153.832031 143.148438 C 154.414062 141.878906 154.703125 140.421875 154.972656 139.066406 C 155.386719 136.816406 155.527344 134.609375 155.671875 132.257812 L 152.414062 135.457031 C 151.199219 136.644531 149.949219 137.890625 148.96875 139.238281 C 146.550781 142.550781 145.433594 146.714844 144.5625 150.617188 C 147.070312 149.492188 149.945312 148.199219 151.511719 146.476562 C 152.617188 145.230469 153.367188 144.191406 153.832031 143.148438 Z M 156.847656 156.445312 C 158.097656 156.097656 159.238281 155.542969 160.320312 154.964844 C 161.003906 154.605469 161.589844 154.089844 162.222656 153.558594 C 162.335938 153.476562 162.476562 153.335938 162.59375 153.253906 C 157.011719 151.21875 150.773438 151.085938 145.113281 152.9375 C 149.613281 156.585938 154.078125 157.1875 156.847656 156.445312 Z M 88.832031 188.417969 C 87.816406 187.140625 86.539062 186.089844 85.308594 185.023438 L 77.0625 178 C 77.28125 178.542969 77.554688 179.113281 77.777344 179.65625 C 78.492188 181.3125 79.207031 182.964844 79.878906 184.632812 C 80.769531 186.84375 81.675781 189.097656 82.921875 191.101562 C 84.78125 194.132812 88.46875 197.003906 92.929688 199.066406 C 92.210938 195.339844 91.285156 191.402344 88.832031 188.417969 Z M 101.457031 200.632812 C 101.84375 198.15625 101.339844 195.539062 100.875 193.050781 L 100.4375 190.792969 C 97.757812 195.503906 97.128906 201.632812 98.886719 206.863281 C 100.03125 204.992188 101.089844 202.867188 101.457031 200.632812 Z M 122.929688 233.984375 C 123.386719 232.753906 123.839844 231.527344 123.996094 230.253906 C 124.402344 227.394531 123.148438 224.640625 121.738281 221.984375 L 121.082031 224.640625 C 120.769531 226.011719 120.410156 227.398438 120.238281 228.769531 C 119.933594 231.359375 120.324219 234.058594 121.371094 236.457031 C 121.527344 236.21875 121.660156 236.035156 121.816406 235.796875 C 122.277344 235.179688 122.695312 234.574219 122.929688 233.984375 Z M 114.859375 239.613281 C 113.722656 240.019531 112.652344 240.785156 111.609375 241.496094 L 108.265625 243.828125 C 109.128906 243.882812 110.164062 243.882812 111.324219 243.84375 C 113.039062 243.769531 114.597656 243.648438 115.964844 243.074219 C 117.542969 242.429688 119.09375 240.804688 119.878906 239.144531 C 118.195312 239.019531 116.410156 239.023438 114.859375 239.613281 Z M 101.246094 229.453125 C 100.460938 232.152344 100.605469 235.257812 100.765625 238.265625 C 100.796875 239.101562 100.828125 239.941406 100.859375 240.777344 C 102.226562 238.128906 103.519531 235.414062 104.335938 232.515625 C 105.222656 229.410156 105.535156 226.109375 105.308594 222.890625 C 103.527344 224.960938 101.957031 226.96875 101.246094 229.453125 Z M 98.183594 220.875 C 96.3125 221.191406 94.507812 221.71875 92.675781 222.300781 C 94.925781 223.183594 97.410156 223.898438 99.640625 223.234375 C 100.71875 222.9375 101.777344 222.273438 102.761719 221.675781 C 103.03125 221.496094 103.402344 221.332031 103.6875 221.195312 C 103.816406 221.152344 103.972656 221.054688 104.101562 221.015625 C 102.363281 220.578125 100.382812 220.550781 98.183594 220.875 Z M 76.738281 222.105469 C 76.703125 222.730469 76.535156 223.535156 76.410156 224.328125 C 76.410156 224.328125 76.425781 224.371094 76.382812 224.382812 C 78.742188 222.644531 80.859375 220.746094 81.996094 218.265625 C 82.519531 217.113281 82.847656 215.925781 83.175781 214.597656 C 83.28125 214.1875 83.414062 213.722656 83.515625 213.3125 C 83.722656 212.632812 83.929688 211.957031 84.179688 211.265625 C 81.5625 212.335938 79.082031 213.6875 77.863281 216.054688 C 76.988281 217.886719 76.863281 220.136719 76.738281 222.105469 Z M 72.453125 210.71875 C 75.628906 211.257812 79.292969 210.515625 82.730469 209.515625 L 74.710938 206.75 C 72.597656 206.011719 70.386719 205.257812 68.167969 204.929688 C 66.132812 204.589844 63.980469 204.617188 61.886719 204.671875 C 65.105469 207.410156 68.425781 210.023438 72.453125 210.71875 Z M 72.453125 210.71875 " fill-opacity="1" fill-rule="nonzero"/></g></g></g></g></svg>