<svg xmlns="http://www.w3.org/2000/svg" background-color="transparent" xmlns:xlink="http://www.w3.org/1999/xlink" width="500"  zoomAndPan="magnify" viewBox="0 0 375 374.999991" height="500" preserveAspectRatio="xMidYMid meet" version="1.0">
<circle cx="188" cy="188" r="123" stroke="#356859" stroke-width="1" fill="#fffbe6" />

<defs><g/><clipPath id="id1"><path d="M 187 120 L 252 120 L 252 245 L 187 245 Z M 187 120 " clip-rule="nonzero"/></clipPath><clipPath id="id2" ><path d="M 199.027344 115.667969 L 273.324219 139.417969 L 234.964844 259.433594 L 160.667969 235.6875 Z M 199.027344 115.667969 " clip-rule="nonzero"/></clipPath><clipPath id="id3"><path d="M 199.027344 115.667969 L 273.324219 139.417969 L 234.964844 259.433594 L 160.667969 235.6875 Z M 199.027344 115.667969 " clip-rule="nonzero"/></clipPath><clipPath id="id4"><path  d="M 123 120 L 188 120 L 188 245 L 123 245 Z M 123 120 " clip-rule="nonzero"/></clipPath><clipPath id="id5"><path d="M 101.609375 139.351562 L 175.929688 115.679688 L 214.171875 235.738281 L 139.851562 259.410156 Z M 101.609375 139.351562 " clip-rule="nonzero"/></clipPath><clipPath id="id6"><path d="M 175.964844 115.667969 L 101.644531 139.34375 L 139.882812 259.398438 L 214.203125 235.726562 Z M 175.964844 115.667969 " clip-rule="nonzero"/></clipPath><clipPath id="id7"><path d="M 87.574219 182.328125 L 98.074219 182.328125 L 98.074219 192.828125 L 87.574219 192.828125 Z M 87.574219 182.328125 " clip-rule="nonzero"/></clipPath><clipPath id="id8"><path d="M 277.078125 182.328125 L 287.578125 182.328125 L 287.578125 192.828125 L 277.078125 192.828125 Z M 277.078125 182.328125 " clip-rule="nonzero"/></clipPath></defs><path fill="#356859"  d="M 187.636719 311.824219 C 185.605469 311.824219 183.574219 311.777344 181.542969 311.675781 C 179.515625 311.578125 177.488281 311.425781 175.464844 311.226562 C 173.441406 311.027344 171.425781 310.78125 169.414062 310.480469 C 167.40625 310.183594 165.402344 309.835938 163.410156 309.441406 C 161.417969 309.042969 159.433594 308.597656 157.460938 308.105469 C 155.492188 307.609375 153.53125 307.070312 151.585938 306.480469 C 149.644531 305.886719 147.714844 305.25 145.800781 304.566406 C 143.886719 303.882812 141.992188 303.152344 140.113281 302.371094 C 138.234375 301.59375 136.378906 300.773438 134.539062 299.902344 C 132.703125 299.035156 130.886719 298.121094 129.09375 297.160156 C 127.304688 296.203125 125.535156 295.203125 123.792969 294.15625 C 122.046875 293.113281 120.332031 292.027344 118.640625 290.898438 C 116.953125 289.765625 115.292969 288.597656 113.660156 287.386719 C 112.027344 286.175781 110.425781 284.925781 108.851562 283.636719 C 107.28125 282.347656 105.742188 281.019531 104.238281 279.65625 C 102.730469 278.289062 101.261719 276.890625 99.824219 275.453125 C 98.386719 274.015625 96.984375 272.542969 95.621094 271.039062 C 94.253906 269.53125 92.929688 267.992188 91.640625 266.421875 C 90.347656 264.851562 89.097656 263.25 87.886719 261.617188 C 86.679688 259.984375 85.507812 258.324219 84.378906 256.632812 C 83.25 254.941406 82.164062 253.226562 81.117188 251.484375 C 80.074219 249.738281 79.070312 247.972656 78.113281 246.179688 C 77.15625 244.386719 76.242188 242.574219 75.371094 240.734375 C 74.503906 238.898438 73.679688 237.039062 72.902344 235.164062 C 72.125 233.285156 71.394531 231.390625 70.707031 229.476562 C 70.023438 227.5625 69.386719 225.632812 68.796875 223.6875 C 68.207031 221.742188 67.664062 219.785156 67.171875 217.8125 C 66.675781 215.839844 66.230469 213.859375 65.835938 211.867188 C 65.4375 209.871094 65.089844 207.871094 64.792969 205.859375 C 64.496094 203.847656 64.246094 201.832031 64.046875 199.808594 C 63.847656 197.789062 63.699219 195.761719 63.597656 193.730469 C 63.5 191.703125 63.449219 189.671875 63.449219 187.636719 C 63.449219 185.605469 63.5 183.574219 63.597656 181.542969 C 63.699219 179.515625 63.847656 177.488281 64.046875 175.464844 C 64.246094 173.441406 64.496094 171.425781 64.792969 169.414062 C 65.089844 167.40625 65.4375 165.402344 65.835938 163.410156 C 66.230469 161.417969 66.675781 159.433594 67.171875 157.460938 C 67.664062 155.492188 68.207031 153.53125 68.796875 151.585938 C 69.386719 149.644531 70.023438 147.714844 70.707031 145.800781 C 71.394531 143.886719 72.125 141.992188 72.902344 140.113281 C 73.679688 138.234375 74.503906 136.378906 75.371094 134.539062 C 76.242188 132.703125 77.15625 130.886719 78.113281 129.09375 C 79.070312 127.304688 80.074219 125.535156 81.117188 123.792969 C 82.164062 122.046875 83.25 120.332031 84.378906 118.640625 C 85.507812 116.953125 86.679688 115.292969 87.886719 113.660156 C 89.097656 112.027344 90.347656 110.425781 91.640625 108.851562 C 92.929688 107.28125 94.253906 105.742188 95.621094 104.238281 C 96.984375 102.730469 98.386719 101.261719 99.824219 99.824219 C 101.261719 98.386719 102.730469 96.984375 104.238281 95.621094 C 105.742188 94.253906 107.28125 92.929688 108.851562 91.640625 C 110.425781 90.347656 112.027344 89.097656 113.660156 87.886719 C 115.292969 86.679688 116.953125 85.507812 118.640625 84.378906 C 120.332031 83.25 122.046875 82.164062 123.792969 81.117188 C 125.535156 80.074219 127.304688 79.070312 129.09375 78.113281 C 130.886719 77.15625 132.703125 76.242188 134.539062 75.371094 C 136.378906 74.503906 138.234375 73.679688 140.113281 72.902344 C 141.992188 72.125 143.886719 71.394531 145.800781 70.707031 C 147.714844 70.023438 149.644531 69.386719 151.585938 68.796875 C 153.53125 68.207031 155.492188 67.664062 157.460938 67.171875 C 159.433594 66.675781 161.417969 66.230469 163.410156 65.835938 C 165.402344 65.4375 167.40625 65.089844 169.414062 64.792969 C 171.425781 64.496094 173.441406 64.246094 175.464844 64.046875 C 177.488281 63.847656 179.515625 63.699219 181.542969 63.597656 C 183.574219 63.5 185.605469 63.449219 187.636719 63.449219 C 189.671875 63.449219 191.703125 63.5 193.730469 63.597656 C 195.761719 63.699219 197.789062 63.847656 199.808594 64.046875 C 201.832031 64.246094 203.847656 64.496094 205.859375 64.792969 C 207.871094 65.089844 209.871094 65.4375 211.867188 65.835938 C 213.859375 66.230469 215.839844 66.675781 217.8125 67.171875 C 219.785156 67.664062 221.742188 68.207031 223.6875 68.796875 C 225.632812 69.386719 227.5625 70.023438 229.476562 70.707031 C 231.390625 71.394531 233.285156 72.125 235.164062 72.902344 C 237.039062 73.679688 238.898438 74.503906 240.734375 75.371094 C 242.574219 76.242188 244.386719 77.15625 246.179688 78.113281 C 247.972656 79.070312 249.738281 80.074219 251.484375 81.117188 C 253.226562 82.164062 254.941406 83.25 256.632812 84.378906 C 258.324219 85.507812 259.984375 86.679688 261.617188 87.886719 C 263.25 89.097656 264.851562 90.347656 266.421875 91.640625 C 267.992188 92.929688 269.53125 94.253906 271.039062 95.621094 C 272.542969 96.984375 274.015625 98.386719 275.453125 99.824219 C 276.890625 101.261719 278.289062 102.730469 279.65625 104.238281 C 281.019531 105.742188 282.347656 107.28125 283.636719 108.851562 C 284.925781 110.425781 286.175781 112.027344 287.386719 113.660156 C 288.597656 115.292969 289.765625 116.953125 290.898438 118.640625 C 292.027344 120.332031 293.113281 122.046875 294.15625 123.792969 C 295.203125 125.535156 296.203125 127.304688 297.160156 129.09375 C 298.121094 130.886719 299.035156 132.703125 299.902344 134.539062 C 300.773438 136.378906 301.59375 138.234375 302.371094 140.113281 C 303.152344 141.992188 303.882812 143.886719 304.566406 145.800781 C 305.25 147.714844 305.886719 149.644531 306.480469 151.585938 C 307.070312 153.53125 307.609375 155.492188 308.105469 157.460938 C 308.597656 159.433594 309.042969 161.417969 309.441406 163.410156 C 309.835938 165.402344 310.183594 167.40625 310.480469 169.414062 C 310.78125 171.425781 311.027344 173.441406 311.226562 175.464844 C 311.425781 177.488281 311.578125 179.515625 311.675781 181.542969 C 311.777344 183.574219 311.824219 185.605469 311.824219 187.636719 C 311.824219 189.667969 311.773438 191.699219 311.671875 193.730469 C 311.566406 195.757812 311.417969 197.785156 311.214844 199.804688 C 311.015625 201.828125 310.765625 203.84375 310.464844 205.851562 C 310.164062 207.863281 309.816406 209.863281 309.417969 211.855469 C 309.019531 213.847656 308.574219 215.832031 308.078125 217.800781 C 307.582031 219.769531 307.039062 221.726562 306.449219 223.671875 C 305.855469 225.617188 305.21875 227.542969 304.53125 229.457031 C 303.847656 231.371094 303.113281 233.265625 302.335938 235.140625 C 301.558594 237.019531 300.734375 238.875 299.863281 240.710938 C 298.996094 242.546875 298.082031 244.359375 297.121094 246.152344 C 296.164062 247.945312 295.160156 249.710938 294.117188 251.453125 C 293.070312 253.195312 291.984375 254.910156 290.855469 256.601562 C 289.726562 258.289062 288.554688 259.949219 287.34375 261.582031 C 286.132812 263.214844 284.882812 264.816406 283.59375 266.386719 C 282.304688 267.957031 280.980469 269.492188 279.613281 271 C 278.25 272.503906 276.847656 273.976562 275.414062 275.414062 C 273.976562 276.847656 272.503906 278.25 271 279.613281 C 269.492188 280.980469 267.957031 282.304688 266.386719 283.59375 C 264.816406 284.882812 263.214844 286.132812 261.582031 287.34375 C 259.949219 288.554688 258.289062 289.726562 256.601562 290.855469 C 254.910156 291.984375 253.195312 293.070312 251.453125 294.117188 C 249.710938 295.160156 247.945312 296.164062 246.152344 297.121094 C 244.359375 298.082031 242.546875 298.996094 240.710938 299.863281 C 238.875 300.734375 237.019531 301.558594 235.140625 302.335938 C 233.265625 303.113281 231.371094 303.847656 229.457031 304.53125 C 227.542969 305.21875 225.617188 305.855469 223.671875 306.449219 C 221.726562 307.039062 219.769531 307.582031 217.800781 308.078125 C 215.832031 308.574219 213.847656 309.019531 211.855469 309.417969 C 209.863281 309.816406 207.863281 310.164062 205.851562 310.464844 C 203.84375 310.765625 201.828125 311.015625 199.804688 311.214844 C 197.785156 311.417969 195.757812 311.566406 193.730469 311.671875 C 191.699219 311.773438 189.667969 311.824219 187.636719 311.824219 Z M 187.636719 64.589844 C 185.625 64.589844 183.609375 64.636719 181.601562 64.738281 C 179.589844 64.835938 177.582031 64.984375 175.578125 65.179688 C 173.574219 65.378906 171.574219 65.625 169.582031 65.921875 C 167.589844 66.214844 165.605469 66.558594 163.632812 66.953125 C 161.65625 67.347656 159.691406 67.785156 157.738281 68.277344 C 155.785156 68.765625 153.84375 69.300781 151.917969 69.886719 C 149.992188 70.472656 148.078125 71.101562 146.183594 71.78125 C 144.289062 72.460938 142.410156 73.183594 140.546875 73.957031 C 138.6875 74.726562 136.847656 75.542969 135.027344 76.402344 C 133.207031 77.261719 131.410156 78.167969 129.632812 79.117188 C 127.855469 80.066406 126.105469 81.058594 124.378906 82.09375 C 122.652344 83.128906 120.949219 84.207031 119.273438 85.324219 C 117.601562 86.445312 115.953125 87.605469 114.335938 88.804688 C 112.71875 90.003906 111.132812 91.242188 109.574219 92.519531 C 108.019531 93.796875 106.496094 95.113281 105.003906 96.464844 C 103.511719 97.816406 102.054688 99.203125 100.628906 100.628906 C 99.203125 102.054688 97.816406 103.511719 96.464844 105.003906 C 95.113281 106.496094 93.796875 108.019531 92.519531 109.574219 C 91.242188 111.132812 90.003906 112.71875 88.804688 114.335938 C 87.605469 115.953125 86.445312 117.601562 85.324219 119.273438 C 84.207031 120.949219 83.128906 122.652344 82.09375 124.378906 C 81.058594 126.105469 80.066406 127.855469 79.117188 129.632812 C 78.167969 131.410156 77.261719 133.207031 76.402344 135.027344 C 75.542969 136.847656 74.726562 138.6875 73.957031 140.546875 C 73.183594 142.410156 72.460938 144.289062 71.78125 146.183594 C 71.101562 148.078125 70.472656 149.992188 69.886719 151.917969 C 69.300781 153.84375 68.765625 155.785156 68.277344 157.738281 C 67.785156 159.691406 67.347656 161.65625 66.953125 163.632812 C 66.558594 165.605469 66.214844 167.589844 65.921875 169.582031 C 65.625 171.574219 65.378906 173.574219 65.179688 175.578125 C 64.984375 177.582031 64.835938 179.589844 64.738281 181.601562 C 64.636719 183.609375 64.589844 185.625 64.589844 187.636719 C 64.589844 189.652344 64.636719 191.664062 64.738281 193.675781 C 64.835938 195.6875 64.984375 197.695312 65.179688 199.699219 C 65.378906 201.703125 65.625 203.699219 65.921875 205.691406 C 66.214844 207.683594 66.558594 209.667969 66.953125 211.644531 C 67.347656 213.617188 67.785156 215.582031 68.277344 217.535156 C 68.765625 219.488281 69.300781 221.429688 69.886719 223.355469 C 70.472656 225.285156 71.101562 227.195312 71.78125 229.089844 C 72.460938 230.988281 73.183594 232.867188 73.957031 234.726562 C 74.726562 236.585938 75.542969 238.425781 76.402344 240.246094 C 77.261719 242.070312 78.167969 243.867188 79.117188 245.644531 C 80.066406 247.417969 81.058594 249.171875 82.09375 250.898438 C 83.128906 252.625 84.207031 254.324219 85.324219 256 C 86.445312 257.675781 87.605469 259.320312 88.804688 260.9375 C 90.003906 262.554688 91.242188 264.140625 92.519531 265.699219 C 93.796875 267.257812 95.113281 268.78125 96.464844 270.273438 C 97.816406 271.765625 99.203125 273.222656 100.628906 274.648438 C 102.054688 276.070312 103.511719 277.457031 105.003906 278.8125 C 106.496094 280.164062 108.019531 281.476562 109.574219 282.757812 C 111.132812 284.035156 112.71875 285.273438 114.335938 286.472656 C 115.953125 287.671875 117.601562 288.832031 119.273438 289.949219 C 120.949219 291.066406 122.652344 292.144531 124.378906 293.179688 C 126.105469 294.214844 127.855469 295.207031 129.632812 296.15625 C 131.410156 297.105469 133.207031 298.011719 135.027344 298.871094 C 136.847656 299.734375 138.6875 300.550781 140.546875 301.320312 C 142.410156 302.089844 144.289062 302.816406 146.183594 303.492188 C 148.078125 304.171875 149.992188 304.804688 151.917969 305.386719 C 153.84375 305.972656 155.785156 306.511719 157.738281 307 C 159.691406 307.488281 161.65625 307.929688 163.632812 308.324219 C 165.605469 308.714844 167.589844 309.058594 169.582031 309.355469 C 171.574219 309.652344 173.574219 309.898438 175.578125 310.09375 C 177.582031 310.292969 179.589844 310.441406 181.601562 310.539062 C 183.609375 310.636719 185.625 310.6875 187.636719 310.6875 C 189.652344 310.6875 191.664062 310.636719 193.675781 310.539062 C 195.6875 310.441406 197.695312 310.292969 199.699219 310.09375 C 201.703125 309.898438 203.699219 309.652344 205.691406 309.355469 C 207.683594 309.058594 209.667969 308.714844 211.644531 308.324219 C 213.617188 307.929688 215.582031 307.488281 217.535156 307 C 219.488281 306.511719 221.429688 305.972656 223.355469 305.386719 C 225.285156 304.804688 227.195312 304.171875 229.089844 303.492188 C 230.988281 302.816406 232.867188 302.089844 234.726562 301.320312 C 236.585938 300.550781 238.425781 299.734375 240.246094 298.871094 C 242.066406 298.011719 243.867188 297.105469 245.640625 296.15625 C 247.417969 295.207031 249.171875 294.214844 250.898438 293.179688 C 252.625 292.144531 254.324219 291.066406 256 289.949219 C 257.675781 288.832031 259.320312 287.671875 260.9375 286.472656 C 262.554688 285.273438 264.140625 284.035156 265.699219 282.757812 C 267.253906 281.476562 268.78125 280.164062 270.273438 278.8125 C 271.765625 277.457031 273.222656 276.070312 274.648438 274.648438 C 276.070312 273.222656 277.457031 271.765625 278.8125 270.273438 C 280.164062 268.78125 281.476562 267.257812 282.757812 265.699219 C 284.035156 264.140625 285.273438 262.554688 286.472656 260.9375 C 287.671875 259.320312 288.832031 257.675781 289.949219 256 C 291.066406 254.324219 292.144531 252.625 293.179688 250.898438 C 294.214844 249.171875 295.207031 247.417969 296.15625 245.644531 C 297.105469 243.867188 298.011719 242.070312 298.871094 240.246094 C 299.734375 238.425781 300.550781 236.585938 301.320312 234.726562 C 302.089844 232.867188 302.816406 230.988281 303.492188 229.089844 C 304.171875 227.195312 304.804688 225.285156 305.386719 223.355469 C 305.972656 221.429688 306.511719 219.488281 307 217.535156 C 307.488281 215.582031 307.929688 213.617188 308.324219 211.644531 C 308.714844 209.667969 309.058594 207.683594 309.355469 205.691406 C 309.652344 203.699219 309.898438 201.703125 310.09375 199.699219 C 310.292969 197.695312 310.441406 195.6875 310.539062 193.675781 C 310.636719 191.664062 310.6875 189.652344 310.6875 187.636719 C 310.683594 185.625 310.632812 183.613281 310.53125 181.601562 C 310.429688 179.589844 310.28125 177.585938 310.082031 175.582031 C 309.882812 173.578125 309.632812 171.582031 309.335938 169.589844 C 309.039062 167.597656 308.695312 165.617188 308.300781 163.640625 C 307.90625 161.667969 307.464844 159.703125 306.972656 157.75 C 306.480469 155.800781 305.945312 153.859375 305.359375 151.933594 C 304.773438 150.007812 304.140625 148.097656 303.460938 146.203125 C 302.78125 144.308594 302.054688 142.429688 301.285156 140.570312 C 300.511719 138.710938 299.695312 136.871094 298.835938 135.050781 C 297.972656 133.230469 297.066406 131.433594 296.117188 129.660156 C 295.167969 127.882812 294.175781 126.132812 293.140625 124.40625 C 292.105469 122.679688 291.027344 120.980469 289.90625 119.308594 C 288.789062 117.632812 287.628906 115.988281 286.429688 114.371094 C 285.230469 112.753906 283.992188 111.167969 282.714844 109.613281 C 281.4375 108.058594 280.121094 106.53125 278.769531 105.042969 C 277.417969 103.550781 276.03125 102.09375 274.605469 100.667969 C 273.183594 99.246094 271.726562 97.859375 270.234375 96.503906 C 268.742188 95.152344 267.21875 93.839844 265.664062 92.5625 C 264.105469 91.285156 262.519531 90.046875 260.902344 88.847656 C 259.285156 87.644531 257.640625 86.488281 255.96875 85.367188 C 254.292969 84.25 252.59375 83.171875 250.867188 82.136719 C 249.140625 81.101562 247.390625 80.109375 245.617188 79.160156 C 243.839844 78.207031 242.042969 77.304688 240.222656 76.441406 C 238.40625 75.578125 236.566406 74.761719 234.707031 73.992188 C 232.847656 73.21875 230.96875 72.496094 229.074219 71.816406 C 227.179688 71.136719 225.269531 70.503906 223.339844 69.917969 C 221.414062 69.332031 219.476562 68.792969 217.523438 68.304688 C 215.570312 67.8125 213.609375 67.371094 211.632812 66.976562 C 209.660156 66.582031 207.675781 66.234375 205.6875 65.9375 C 203.695312 65.640625 201.699219 65.394531 199.695312 65.195312 C 197.691406 64.996094 195.683594 64.84375 193.671875 64.742188 C 191.664062 64.640625 189.652344 64.589844 187.636719 64.589844 Z M 187.636719 64.589844 " fill-opacity="1" fill-rule="nonzero"/><g clip-path="url(#id1)"><g clip-path="url(#id2)"><g clip-path="url(#id3)"><path fill="#356859" d="M 251.789062 206.328125 C 251.714844 206.148438 251.546875 206.015625 251.363281 206.007812 C 249.753906 205.917969 248.089844 205.835938 246.445312 206.105469 C 245.113281 206.3125 243.835938 206.75 242.617188 207.179688 L 236.6875 209.199219 C 234.597656 208.71875 232.484375 208.546875 230.363281 208.738281 C 231.097656 207.441406 231.820312 206.164062 232.523438 204.878906 C 234.136719 204.207031 237.4375 202.5625 239.136719 199.800781 C 239.886719 198.609375 240.414062 197.296875 240.929688 196.007812 C 241.308594 195.070312 241.710938 194.140625 242.113281 193.214844 C 242.507812 192.308594 242.917969 191.355469 243.296875 190.417969 C 243.390625 190.210938 243.308594 189.972656 243.140625 189.839844 C 242.972656 189.703125 242.699219 189.722656 242.550781 189.863281 L 236.359375 195.101562 C 235.636719 195.71875 234.871094 196.375 234.25 197.152344 C 232.542969 199.277344 232.019531 202.152344 231.578125 204.445312 C 231.5625 204.492188 231.570312 204.550781 231.585938 204.582031 C 231.332031 205.054688 231.074219 205.527344 230.792969 205.992188 C 231.113281 203.003906 230.351562 199.847656 228.628906 197.554688 C 228.515625 197.410156 228.332031 197.324219 228.136719 197.367188 C 227.9375 197.410156 227.8125 197.554688 227.773438 197.753906 L 227.292969 200.167969 C 227.023438 201.589844 226.699219 203.179688 226.933594 204.761719 C 227.210938 206.460938 228.101562 207.964844 228.929688 209.261719 C 227.808594 211.203125 226.636719 213.128906 225.410156 214.984375 C 224.847656 213.855469 224.1875 212.769531 223.546875 211.71875 C 223.238281 211.199219 222.875 210.605469 222.367188 210.125 C 222.359375 209.410156 222.367188 208.644531 222.363281 207.902344 C 222.371094 207.058594 222.375 206.214844 222.359375 205.441406 C 222.359375 204.699219 222.332031 203.871094 222.085938 203.078125 C 221.84375 202.339844 221.414062 201.699219 221.019531 201.125 C 220.621094 200.546875 220.265625 200.011719 219.902344 199.496094 C 219.535156 198.984375 219.171875 198.472656 218.800781 197.902344 C 218.695312 197.734375 218.484375 197.644531 218.28125 197.710938 C 218.082031 197.75 217.941406 197.945312 217.925781 198.152344 C 217.804688 199.777344 217.78125 201.414062 217.898438 203.035156 C 217.957031 204.085938 218.09375 205.320312 218.542969 206.46875 C 218.75 206.984375 218.992188 207.460938 219.269531 207.917969 C 217.234375 206.765625 215.082031 205.894531 212.800781 205.269531 C 212.632812 205.214844 212.457031 205.265625 212.339844 205.386719 C 212.222656 205.507812 212.167969 205.675781 212.195312 205.84375 C 212.648438 207.972656 213.808594 209.636719 215.554688 210.617188 C 215.824219 210.757812 216.097656 210.898438 216.386719 210.992188 C 218.109375 211.542969 220.152344 211.109375 221.5 210.695312 C 221.5 210.695312 221.523438 210.703125 221.515625 210.726562 C 221.554688 210.765625 221.578125 210.773438 221.621094 210.8125 C 222.054688 211.1875 222.378906 211.742188 222.710938 212.273438 C 223.417969 213.449219 224.15625 214.691406 224.761719 215.941406 C 222.742188 218.867188 220.507812 221.644531 217.917969 224.125 C 218.277344 222.917969 218.398438 221.632812 218.25 220.367188 C 218.152344 219.515625 217.957031 218.714844 217.765625 217.910156 L 217.105469 215.1875 C 217.0625 214.988281 216.894531 214.855469 216.695312 214.820312 C 216.496094 214.78125 216.296875 214.902344 216.21875 215.0625 C 216.140625 215.222656 216.039062 215.375 215.960938 215.539062 C 214.980469 217.367188 213.953125 219.257812 214.242188 221.414062 C 214.355469 222.21875 214.636719 222.996094 214.90625 223.714844 C 215.054688 224.160156 215.347656 224.570312 215.636719 224.980469 C 215.816406 225.25 216 225.496094 216.132812 225.75 C 212.664062 228.660156 208.785156 230.964844 204.457031 233.441406 C 202.351562 234.648438 200.140625 235.953125 198.046875 237.214844 C 194.855469 239.101562 191.558594 241.066406 188.335938 242.8125 C 194.84375 221.617188 200.304688 199.898438 204.660156 178.09375 C 206.835938 178.3125 209.679688 178.507812 211.707031 177.199219 C 212.378906 176.753906 213.023438 176.140625 213.699219 175.269531 C 214.507812 174.230469 215.144531 173.140625 215.710938 171.867188 C 215.789062 171.707031 215.746094 171.507812 215.632812 171.367188 C 215.519531 171.222656 215.328125 171.160156 215.164062 171.1875 C 210.679688 172.160156 207.371094 173.75 205.050781 176.050781 C 205.769531 172.390625 206.449219 168.695312 207.089844 165.039062 C 209.828125 163.003906 212.800781 161.308594 215.960938 160.015625 L 216.808594 162.484375 C 217.023438 163.132812 217.261719 163.792969 217.644531 164.417969 C 217.910156 164.820312 218.234375 165.214844 218.691406 165.675781 C 219.964844 166.902344 221.417969 167.898438 223.023438 168.570312 C 223.046875 168.578125 223.046875 168.578125 223.074219 168.585938 C 223.214844 168.632812 223.382812 168.605469 223.523438 168.492188 C 223.667969 168.378906 223.726562 168.1875 223.703125 168.019531 C 223.507812 166.976562 222.871094 165.082031 222.4375 164.125 C 221.996094 163.1875 221.375 162.410156 220.644531 161.726562 C 221.097656 161.789062 221.511719 161.816406 221.910156 161.8125 C 223.03125 161.773438 224.132812 161.542969 224.96875 161.335938 C 226.664062 160.898438 228.027344 160.433594 229.375 159.859375 C 229.554688 159.785156 229.671875 159.585938 229.664062 159.371094 C 229.652344 159.15625 229.492188 159 229.300781 158.9375 C 227.199219 158.398438 224.964844 157.871094 222.703125 157.753906 C 221.84375 157.71875 221.023438 157.71875 220.253906 157.816406 C 221.140625 157.28125 221.96875 156.671875 222.625 155.929688 C 224.613281 153.761719 225.8125 150.839844 226.777344 148.238281 C 226.84375 148.023438 226.785156 147.792969 226.585938 147.675781 C 226.417969 147.542969 226.148438 147.5625 225.988281 147.722656 C 225.109375 148.5 224.074219 149.171875 223.09375 149.839844 C 222.164062 150.441406 221.222656 151.066406 220.355469 151.792969 C 218.121094 153.671875 216.503906 156.25 215.757812 159.078125 C 212.78125 160.296875 209.941406 161.824219 207.3125 163.679688 C 207.472656 162.859375 207.597656 162.050781 207.753906 161.230469 C 208.296875 158.121094 208.792969 155 209.296875 151.9375 L 214.300781 150.492188 C 215.371094 150.199219 216.460938 149.859375 217.480469 149.3125 C 219.457031 148.253906 220.867188 146.480469 222.230469 144.617188 C 222.652344 144.035156 223.042969 143.472656 223.402344 142.925781 C 223.660156 142.535156 223.917969 142.140625 224.207031 141.730469 C 224.339844 141.5625 224.3125 141.316406 224.183594 141.140625 C 224.054688 140.96875 223.808594 140.914062 223.625 140.988281 L 219.289062 142.828125 C 217.726562 143.496094 216.113281 144.167969 214.691406 145.222656 C 213.628906 145.992188 212.722656 146.921875 211.851562 147.832031 L 209.570312 150.171875 C 210.0625 147.152344 210.519531 144.152344 210.96875 141.253906 C 210.984375 141.207031 210.96875 141.175781 210.960938 141.121094 C 211.296875 140.566406 211.636719 139.988281 212.011719 139.394531 C 213.183594 137.546875 214.371094 135.648438 214.960938 133.5625 C 216.097656 129.507812 215.75 125.140625 215.457031 121.265625 C 215.445312 121.050781 215.269531 120.859375 215.046875 120.816406 C 214.816406 120.792969 214.617188 120.917969 214.523438 121.125 L 211.613281 129.082031 C 211.226562 130.121094 210.832031 131.1875 210.558594 132.289062 C 209.835938 135.125 209.839844 138.089844 209.902344 141.125 C 209.902344 141.203125 209.933594 141.269531 209.96875 141.332031 C 209.570312 143.902344 209.171875 146.550781 208.742188 149.21875 C 207.722656 146.457031 206.359375 143.855469 205.007812 141.308594 C 205.402344 139.5 205.890625 137.066406 205.683594 135.226562 C 205.320312 131.988281 203.257812 129.347656 201.464844 127.027344 C 201.335938 126.855469 201.113281 126.808594 200.90625 126.875 C 200.699219 126.941406 200.582031 127.144531 200.59375 127.359375 L 201.214844 134.089844 C 201.304688 135.046875 201.390625 136.023438 201.648438 136.953125 C 201.796875 137.476562 202 137.992188 202.214844 138.484375 C 201.933594 138.289062 201.628906 138.085938 201.332031 137.9375 C 200.042969 137.261719 198.617188 136.9375 197.242188 136.683594 C 196.398438 136.519531 195.570312 136.464844 194.765625 136.417969 C 194.144531 136.378906 193.523438 136.339844 192.894531 136.246094 C 192.664062 136.222656 192.464844 136.34375 192.371094 136.554688 C 192.304688 136.769531 192.363281 137 192.554688 137.140625 L 196.507812 139.808594 C 197.511719 140.472656 198.53125 141.167969 199.691406 141.589844 C 199.808594 141.628906 199.929688 141.667969 200.050781 141.707031 C 201.488281 142.164062 203.046875 142.242188 204.433594 142.285156 C 205.9375 145.175781 207.46875 148.152344 208.390625 151.300781 C 207.863281 154.519531 207.355469 157.769531 206.796875 161.003906 C 206.738281 161.355469 206.671875 161.730469 206.609375 162.082031 C 206.542969 161.714844 206.5 161.355469 206.480469 161.085938 C 206.390625 160.371094 206.3125 159.628906 206.039062 158.910156 C 205.339844 157.046875 203.640625 155.839844 202.257812 154.871094 L 200.230469 153.453125 C 200.054688 153.34375 199.847656 153.332031 199.679688 153.4375 C 199.515625 153.542969 199.445312 153.757812 199.488281 153.957031 L 200.375 157.628906 C 200.535156 158.285156 200.703125 159 200.996094 159.652344 C 201.722656 161.339844 203.164062 162.539062 204.433594 163.605469 L 206.097656 165.011719 C 205.515625 168.316406 204.886719 171.605469 204.257812 174.898438 C 203.796875 173.03125 203.136719 171.128906 201.957031 169.53125 C 201.351562 168.703125 200.625 167.996094 199.925781 167.296875 L 197.203125 164.574219 C 197.066406 164.425781 196.835938 164.40625 196.652344 164.480469 C 196.46875 164.550781 196.355469 164.753906 196.371094 164.945312 C 196.402344 165.351562 196.429688 165.757812 196.457031 166.160156 C 196.546875 167.460938 196.617188 168.804688 196.871094 170.15625 C 197.03125 170.976562 197.203125 171.847656 197.570312 172.679688 C 197.878906 173.363281 198.351562 174.039062 199.027344 174.8125 C 199.535156 175.371094 200.226562 175.855469 200.964844 176.277344 C 198.054688 175.878906 195.058594 176.242188 192.359375 177.417969 C 192.199219 177.496094 192.074219 177.644531 192.070312 177.824219 C 192.0625 178.007812 192.144531 178.167969 192.296875 178.269531 C 192.578125 178.464844 192.851562 178.683594 193.125 178.902344 C 193.503906 179.210938 193.898438 179.546875 194.367188 179.804688 C 194.929688 180.117188 195.546875 180.417969 196.21875 180.632812 C 196.3125 180.664062 196.433594 180.703125 196.527344 180.734375 C 198.964844 181.378906 201.539062 180.347656 203.492188 178.9375 C 199.105469 200.761719 193.605469 222.4375 187.070312 243.625 C 187.007812 243.816406 187.074219 244.023438 187.21875 244.148438 C 187.261719 244.1875 187.332031 244.210938 187.378906 244.226562 C 187.5 244.265625 187.636719 244.253906 187.761719 244.1875 C 191.328125 242.289062 194.984375 240.097656 198.535156 238.003906 C 200.652344 236.75 202.832031 235.464844 204.933594 234.257812 C 209.234375 231.796875 213.144531 229.476562 216.636719 226.570312 C 217.152344 227.765625 218.214844 228.902344 219.359375 229.371094 C 219.496094 229.441406 219.636719 229.488281 219.78125 229.535156 C 220.574219 229.785156 221.402344 229.839844 222.285156 229.882812 C 223.664062 229.953125 224.710938 229.894531 225.464844 229.683594 C 225.640625 229.632812 225.789062 229.496094 225.828125 229.296875 C 225.855469 229.121094 225.789062 228.914062 225.636719 228.8125 L 222.765625 226.808594 C 222.140625 226.371094 221.488281 225.925781 220.714844 225.625 C 219.867188 225.300781 218.984375 225.257812 218.132812 225.277344 C 220.636719 222.980469 222.800781 220.421875 224.75 217.710938 C 224.699219 219.441406 224.902344 221.199219 225.375 222.855469 C 226.046875 225.214844 227.210938 227.359375 228.359375 229.472656 C 228.425781 229.597656 228.511719 229.652344 228.632812 229.691406 C 228.726562 229.722656 228.832031 229.726562 228.917969 229.703125 C 229.125 229.636719 229.273438 229.417969 229.261719 229.203125 C 229.171875 228.171875 229.214844 227.046875 229.269531 225.875 C 229.363281 224.105469 229.441406 222.28125 228.976562 220.597656 C 228.679688 219.546875 228.175781 218.648438 227.542969 217.808594 C 227.855469 217.988281 228.207031 218.128906 228.542969 218.234375 C 228.589844 218.25 228.640625 218.265625 228.664062 218.273438 C 230.667969 218.863281 232.820312 217.910156 234.386719 217.21875 C 234.570312 217.148438 234.679688 216.96875 234.667969 216.753906 C 234.652344 216.5625 234.519531 216.390625 234.359375 216.3125 C 232.9375 215.804688 231.460938 215.304688 229.929688 215.054688 C 228.726562 214.855469 227.589844 214.863281 226.570312 215.066406 C 227.707031 213.339844 228.773438 211.566406 229.820312 209.78125 C 232.035156 209.539062 234.25 209.636719 236.414062 210.144531 C 236.667969 210.753906 236.878906 211.40625 237.070312 212.046875 C 237.128906 212.277344 237.1875 212.507812 237.269531 212.746094 C 237.453125 213.492188 237.664062 214.246094 238.011719 214.96875 C 238.910156 216.867188 240.605469 218.175781 242.417969 219.445312 C 242.460938 219.484375 242.507812 219.5 242.554688 219.515625 C 242.675781 219.550781 242.8125 219.542969 242.9375 219.476562 C 243.09375 219.394531 243.203125 219.21875 243.1875 219.027344 C 243.167969 218.675781 243.074219 218.222656 243.003906 217.78125 C 242.921875 217.382812 242.84375 216.960938 242.832031 216.667969 C 242.769531 215.457031 242.683594 214.078125 242.0625 212.875 C 241.703125 212.179688 241.171875 211.613281 240.585938 211.132812 C 241.910156 211.371094 243.222656 211.476562 244.453125 211.261719 C 247.273438 210.785156 249.40625 208.902344 251.503906 207.058594 L 251.753906 206.847656 C 251.792969 206.726562 251.835938 206.503906 251.789062 206.328125 Z M 216.042969 209.746094 C 214.769531 209.019531 213.84375 207.875 213.363281 206.402344 C 215.964844 207.179688 218.4375 208.367188 220.675781 209.875 C 219.367188 210.25 217.429688 210.53125 216.042969 209.746094 Z M 218.859375 202.921875 C 218.789062 201.8125 218.777344 200.699219 218.8125 199.597656 C 218.917969 199.765625 219.03125 199.90625 219.144531 200.046875 C 219.507812 200.5625 219.871094 201.074219 220.246094 201.644531 C 220.601562 202.179688 220.996094 202.757812 221.179688 203.34375 C 221.394531 203.996094 221.402344 204.710938 221.410156 205.429688 C 221.429688 206.203125 221.421875 207.046875 221.417969 207.890625 C 221.421875 208.289062 221.425781 208.6875 221.398438 209.101562 C 220.609375 208.1875 219.867188 207.210938 219.429688 206.089844 C 219.042969 205.070312 218.933594 203.921875 218.859375 202.921875 Z M 221.535156 164.46875 C 221.828125 165.121094 222.214844 166.222656 222.5 167.160156 C 221.34375 166.550781 220.269531 165.785156 219.367188 164.886719 C 218.941406 164.488281 218.660156 164.132812 218.449219 163.800781 C 218.140625 163.277344 217.910156 162.675781 217.726562 162.089844 L 217.183594 160.488281 C 217.503906 160.640625 217.824219 160.796875 218.144531 160.953125 C 219.5625 161.882812 220.824219 162.972656 221.535156 164.46875 Z M 222.652344 158.664062 C 224.269531 158.730469 225.863281 159.027344 227.625 159.460938 C 226.753906 159.789062 225.820312 160.074219 224.726562 160.359375 C 223.949219 160.558594 222.921875 160.789062 221.890625 160.800781 C 220.902344 160.828125 219.699219 160.550781 218.578125 160.085938 C 218.183594 159.828125 217.785156 159.59375 217.382812 159.359375 C 218.914062 158.792969 220.675781 158.5625 222.652344 158.664062 Z M 220.96875 152.4375 C 221.796875 151.75 222.738281 151.125 223.636719 150.539062 C 224.171875 150.183594 224.703125 149.851562 225.246094 149.46875 C 224.410156 151.503906 223.394531 153.609375 221.933594 155.207031 C 220.675781 156.578125 218.792969 157.511719 216.984375 158.386719 C 216.984375 158.386719 216.949219 158.402344 216.949219 158.402344 C 217.710938 156.105469 219.117188 154.015625 220.96875 152.4375 Z M 211.492188 132.507812 C 211.773438 131.460938 212.136719 130.414062 212.515625 129.394531 L 214.679688 123.527344 C 214.902344 126.800781 214.949219 130.121094 214.046875 133.273438 C 213.507812 135.214844 212.335938 137.0625 211.210938 138.847656 C 211.09375 139.046875 210.960938 139.214844 210.84375 139.417969 C 210.808594 137.050781 210.914062 134.730469 211.492188 132.507812 Z M 202.167969 134 L 201.703125 128.929688 C 203.101562 130.832031 204.441406 132.925781 204.730469 135.320312 C 204.890625 136.71875 204.59375 138.554688 204.277344 140.121094 C 203.566406 139.046875 202.925781 137.917969 202.574219 136.695312 C 202.324219 135.820312 202.25 134.898438 202.167969 134 Z M 200.035156 140.671875 C 198.972656 140.277344 197.996094 139.621094 197.0625 138.980469 L 194.671875 137.367188 C 194.699219 137.375 194.699219 137.375 194.722656 137.382812 C 195.527344 137.429688 196.296875 137.492188 197.097656 137.640625 C 198.445312 137.886719 199.753906 138.171875 200.921875 138.808594 C 201.988281 139.363281 203.074219 140.34375 203.777344 141.285156 C 202.496094 141.242188 201.210938 141.125 200.035156 140.671875 Z M 212.535156 148.5 C 213.394531 147.636719 214.265625 146.726562 215.265625 145.988281 C 216.609375 145.015625 218.167969 144.347656 219.664062 143.714844 L 222.480469 142.5 C 222.136719 143 221.824219 143.480469 221.449219 143.996094 C 220.140625 145.773438 218.816406 147.441406 217.007812 148.394531 C 216.082031 148.894531 215.035156 149.191406 214.019531 149.476562 L 210.617188 150.453125 Z M 214.386719 172.289062 C 213.960938 173.132812 213.492188 173.855469 212.910156 174.59375 C 212.292969 175.375 211.742188 175.941406 211.148438 176.304688 C 209.554688 177.332031 207.222656 177.273438 205.269531 177.097656 C 207.296875 174.890625 210.285156 173.304688 214.386719 172.289062 Z M 205.050781 162.824219 C 203.871094 161.8125 202.535156 160.699219 201.875 159.21875 C 201.613281 158.632812 201.453125 157.972656 201.300781 157.367188 L 200.722656 154.960938 L 201.71875 155.648438 C 203.269531 156.753906 204.609375 157.765625 205.144531 159.230469 C 205.375 159.832031 205.445312 160.519531 205.527344 161.179688 C 205.578125 161.671875 205.707031 162.347656 205.808594 163.015625 C 205.835938 163.179688 205.878906 163.378906 205.902344 163.546875 Z M 198.464844 172.277344 C 198.136719 171.566406 197.976562 170.746094 197.824219 169.984375 C 197.59375 168.722656 197.515625 167.480469 197.4375 166.15625 L 199.265625 167.957031 C 199.949219 168.625 200.648438 169.328125 201.199219 170.085938 C 202.558594 171.949219 203.183594 174.289062 203.671875 176.480469 C 202.261719 175.847656 200.648438 175.117188 199.769531 174.148438 C 199.148438 173.449219 198.726562 172.863281 198.464844 172.277344 Z M 196.761719 179.75 C 196.0625 179.550781 195.421875 179.242188 194.8125 178.914062 C 194.425781 178.710938 194.097656 178.421875 193.746094 178.125 C 193.679688 178.078125 193.597656 177.996094 193.535156 177.949219 C 196.671875 176.8125 200.179688 176.742188 203.359375 177.785156 C 200.832031 179.832031 198.320312 180.167969 196.761719 179.75 Z M 234.984375 197.757812 C 235.554688 197.042969 236.273438 196.449219 236.964844 195.851562 L 241.605469 191.914062 C 241.480469 192.21875 241.328125 192.539062 241.203125 192.84375 C 240.800781 193.773438 240.398438 194.699219 240.019531 195.636719 C 239.515625 196.878906 239.007812 198.144531 238.304688 199.269531 C 237.257812 200.972656 235.183594 202.582031 232.675781 203.738281 C 233.078125 201.644531 233.601562 199.433594 234.984375 197.757812 Z M 227.878906 204.613281 C 227.664062 203.222656 227.949219 201.753906 228.210938 200.355469 L 228.457031 199.085938 C 229.960938 201.734375 230.3125 205.179688 229.320312 208.117188 C 228.679688 207.066406 228.085938 205.871094 227.878906 204.613281 Z M 215.792969 223.339844 C 215.539062 222.648438 215.285156 221.960938 215.195312 221.242188 C 214.96875 219.636719 215.675781 218.089844 216.46875 216.597656 L 216.835938 218.089844 C 217.011719 218.863281 217.214844 219.640625 217.308594 220.410156 C 217.476562 221.867188 217.257812 223.382812 216.667969 224.730469 C 216.578125 224.59375 216.507812 224.492188 216.417969 224.359375 C 216.160156 224.011719 215.925781 223.671875 215.792969 223.339844 Z M 220.328125 226.507812 C 220.964844 226.738281 221.566406 227.167969 222.152344 227.566406 L 224.03125 228.882812 C 223.546875 228.910156 222.964844 228.910156 222.3125 228.886719 C 221.347656 228.84375 220.472656 228.777344 219.707031 228.449219 C 218.816406 228.089844 217.949219 227.175781 217.507812 226.242188 C 218.453125 226.171875 219.457031 226.175781 220.328125 226.507812 Z M 227.984375 220.808594 C 228.425781 222.324219 228.34375 224.070312 228.25 225.761719 C 228.234375 226.230469 228.214844 226.699219 228.195312 227.171875 C 227.429688 225.683594 226.703125 224.15625 226.246094 222.527344 C 225.75 220.78125 225.574219 218.925781 225.707031 217.117188 C 226.707031 218.285156 227.585938 219.410156 227.984375 220.808594 Z M 229.710938 215.988281 C 230.761719 216.167969 231.777344 216.464844 232.808594 216.792969 C 231.539062 217.289062 230.144531 217.6875 228.890625 217.316406 C 228.285156 217.148438 227.691406 216.773438 227.136719 216.4375 C 226.984375 216.335938 226.777344 216.242188 226.617188 216.164062 C 226.546875 216.140625 226.457031 216.085938 226.386719 216.066406 C 227.359375 215.820312 228.476562 215.808594 229.710938 215.988281 Z M 241.765625 216.695312 C 241.785156 217.046875 241.878906 217.5 241.949219 217.945312 C 241.949219 217.945312 241.941406 217.96875 241.964844 217.976562 C 240.640625 216.996094 239.449219 215.929688 238.8125 214.535156 C 238.519531 213.886719 238.335938 213.21875 238.152344 212.472656 C 238.09375 212.242188 238.019531 211.980469 237.960938 211.75 C 237.84375 211.367188 237.726562 210.988281 237.585938 210.597656 C 239.058594 211.203125 240.453125 211.964844 241.136719 213.292969 C 241.625 214.324219 241.695312 215.589844 241.765625 216.695312 Z M 244.179688 210.300781 C 242.394531 210.601562 240.335938 210.179688 238.402344 209.617188 L 242.914062 208.070312 C 244.101562 207.65625 245.34375 207.234375 246.59375 207.050781 C 247.734375 206.859375 248.945312 206.875 250.125 206.910156 C 248.3125 208.445312 246.445312 209.910156 244.179688 210.300781 Z M 244.179688 210.300781 " fill-opacity="1" fill-rule="nonzero" /></g></g></g><g clip-path="url(#id4)"><g clip-path="url(#id5)"><g clip-path="url(#id6)"><path fill="#356859" d="M 123.113281 206.277344 C 123.1875 206.09375 123.355469 205.960938 123.539062 205.957031 C 125.148438 205.867188 126.8125 205.785156 128.457031 206.054688 C 129.789062 206.265625 131.066406 206.707031 132.285156 207.136719 L 138.210938 209.164062 C 140.304688 208.683594 142.414062 208.511719 144.535156 208.707031 C 143.804688 207.40625 143.082031 206.132812 142.382812 204.847656 C 140.765625 204.171875 137.46875 202.523438 135.769531 199.761719 C 135.023438 198.570312 134.5 197.257812 133.980469 195.96875 C 133.605469 195.03125 133.203125 194.101562 132.800781 193.171875 C 132.40625 192.265625 131.996094 191.3125 131.621094 190.375 C 131.527344 190.164062 131.609375 189.925781 131.777344 189.792969 C 131.945312 189.660156 132.21875 189.679688 132.367188 189.816406 L 138.554688 195.066406 C 139.277344 195.679688 140.039062 196.335938 140.660156 197.117188 C 142.367188 199.246094 142.886719 202.121094 143.328125 204.414062 C 143.339844 204.460938 143.332031 204.515625 143.316406 204.550781 C 143.574219 205.023438 143.828125 205.496094 144.109375 205.960938 C 143.789062 202.96875 144.554688 199.816406 146.28125 197.523438 C 146.394531 197.382812 146.578125 197.296875 146.777344 197.339844 C 146.972656 197.382812 147.101562 197.527344 147.136719 197.726562 L 147.613281 200.140625 C 147.882812 201.5625 148.203125 203.152344 147.96875 204.734375 C 147.691406 206.433594 146.796875 207.933594 145.96875 209.230469 C 147.089844 211.171875 148.257812 213.101562 149.484375 214.960938 C 150.046875 213.828125 150.707031 212.746094 151.347656 211.695312 C 151.65625 211.171875 152.023438 210.582031 152.53125 210.101562 C 152.539062 209.386719 152.535156 208.621094 152.535156 207.878906 C 152.53125 207.035156 152.527344 206.191406 152.542969 205.417969 C 152.546875 204.675781 152.570312 203.847656 152.820312 203.054688 C 153.0625 202.316406 153.492188 201.679688 153.890625 201.101562 C 154.285156 200.527344 154.644531 199.988281 155.007812 199.476562 C 155.371094 198.964844 155.738281 198.449219 156.109375 197.882812 C 156.214844 197.714844 156.425781 197.625 156.628906 197.691406 C 156.828125 197.734375 156.96875 197.925781 156.984375 198.132812 C 157.105469 199.761719 157.125 201.394531 157.007812 203.015625 C 156.945312 204.066406 156.808594 205.300781 156.359375 206.449219 C 156.152344 206.964844 155.90625 207.441406 155.632812 207.898438 C 157.667969 206.746094 159.820312 205.875 162.101562 205.253906 C 162.269531 205.203125 162.445312 205.25 162.5625 205.371094 C 162.679688 205.492188 162.734375 205.660156 162.707031 205.828125 C 162.25 207.957031 161.089844 209.621094 159.34375 210.601562 C 159.070312 210.742188 158.800781 210.882812 158.511719 210.972656 C 156.785156 211.523438 154.746094 211.089844 153.398438 210.671875 C 153.398438 210.671875 153.375 210.679688 153.382812 210.703125 C 153.34375 210.742188 153.316406 210.75 153.277344 210.789062 C 152.84375 211.164062 152.519531 211.71875 152.183594 212.25 C 151.476562 213.425781 150.738281 214.664062 150.132812 215.917969 C 152.148438 218.84375 154.378906 221.625 156.964844 224.105469 C 156.605469 222.898438 156.488281 221.613281 156.640625 220.347656 C 156.738281 219.496094 156.929688 218.695312 157.125 217.894531 L 157.789062 215.167969 C 157.832031 214.972656 158 214.839844 158.199219 214.800781 C 158.398438 214.765625 158.597656 214.886719 158.671875 215.046875 C 158.75 215.207031 158.851562 215.359375 158.929688 215.519531 C 159.910156 217.351562 160.933594 219.246094 160.644531 221.398438 C 160.53125 222.203125 160.25 222.980469 159.976562 223.699219 C 159.828125 224.144531 159.539062 224.554688 159.246094 224.964844 C 159.066406 225.234375 158.878906 225.476562 158.75 225.730469 C 162.214844 228.648438 166.089844 230.957031 170.417969 233.4375 C 172.519531 234.644531 174.730469 235.949219 176.824219 237.214844 C 180.015625 239.105469 183.308594 241.074219 186.53125 242.820312 C 180.042969 221.621094 174.601562 199.898438 170.269531 178.089844 C 168.09375 178.304688 165.25 178.496094 163.222656 177.1875 C 162.550781 176.738281 161.90625 176.125 161.234375 175.253906 C 160.429688 174.214844 159.789062 173.125 159.226562 171.847656 C 159.148438 171.6875 159.191406 171.492188 159.304688 171.347656 C 159.417969 171.207031 159.609375 171.144531 159.773438 171.171875 C 164.257812 172.148438 167.5625 173.742188 169.882812 176.042969 C 169.164062 172.386719 168.488281 168.6875 167.851562 165.03125 C 165.117188 162.992188 162.148438 161.292969 158.988281 160 L 158.136719 162.464844 C 157.921875 163.117188 157.683594 163.773438 157.300781 164.398438 C 157.03125 164.800781 156.710938 165.195312 156.25 165.65625 C 154.976562 166.882812 153.523438 167.875 151.914062 168.546875 C 151.890625 168.554688 151.890625 168.554688 151.867188 168.5625 C 151.722656 168.605469 151.554688 168.582031 151.414062 168.46875 C 151.273438 168.355469 151.210938 168.160156 151.238281 167.996094 C 151.433594 166.953125 152.070312 165.058594 152.503906 164.101562 C 152.949219 163.167969 153.570312 162.386719 154.304688 161.703125 C 153.847656 161.769531 153.433594 161.792969 153.035156 161.789062 C 151.914062 161.75 150.8125 161.519531 149.980469 161.308594 C 148.28125 160.871094 146.917969 160.40625 145.574219 159.828125 C 145.390625 159.753906 145.277344 159.554688 145.285156 159.339844 C 145.296875 159.125 145.457031 158.96875 145.648438 158.90625 C 147.75 158.371094 149.984375 157.84375 152.246094 157.730469 C 153.105469 157.695312 153.925781 157.699219 154.695312 157.796875 C 153.8125 157.257812 152.984375 156.648438 152.324219 155.90625 C 150.339844 153.738281 149.144531 150.8125 148.183594 148.210938 C 148.113281 147.996094 148.171875 147.765625 148.375 147.648438 C 148.542969 147.515625 148.8125 147.535156 148.96875 147.695312 C 149.851562 148.472656 150.886719 149.148438 151.863281 149.816406 C 152.792969 150.417969 153.734375 151.042969 154.597656 151.773438 C 156.835938 153.652344 158.449219 156.230469 159.191406 159.0625 C 162.167969 160.28125 165.003906 161.8125 167.628906 163.671875 C 167.472656 162.847656 167.347656 162.042969 167.191406 161.21875 C 166.652344 158.113281 166.160156 154.992188 165.65625 151.925781 L 160.65625 150.476562 C 159.585938 150.183594 158.5 149.84375 157.480469 149.292969 C 155.503906 148.230469 154.09375 146.460938 152.734375 144.59375 C 152.3125 144.011719 151.921875 143.449219 151.5625 142.902344 C 151.304688 142.507812 151.046875 142.117188 150.757812 141.703125 C 150.625 141.535156 150.652344 141.289062 150.78125 141.117188 C 150.910156 140.941406 151.160156 140.890625 151.339844 140.964844 L 155.679688 142.808594 C 157.238281 143.476562 158.851562 144.152344 160.269531 145.207031 C 161.335938 145.976562 162.238281 146.90625 163.109375 147.820312 L 165.386719 150.160156 C 164.898438 147.144531 164.445312 144.140625 163.996094 141.242188 C 163.984375 141.195312 164 141.164062 164.007812 141.109375 C 163.671875 140.554688 163.328125 139.976562 162.957031 139.378906 C 161.785156 137.53125 160.601562 135.636719 160.015625 133.546875 C 158.882812 129.492188 159.234375 125.125 159.53125 121.246094 C 159.539062 121.03125 159.71875 120.84375 159.941406 120.800781 C 160.171875 120.777344 160.371094 120.902344 160.460938 121.109375 L 163.367188 129.070312 C 163.753906 130.109375 164.144531 131.175781 164.417969 132.277344 C 165.136719 135.117188 165.128906 138.078125 165.066406 141.113281 C 165.066406 141.195312 165.03125 141.257812 165 141.320312 C 165.394531 143.890625 165.792969 146.542969 166.21875 149.207031 C 167.242188 146.449219 168.601562 143.847656 169.957031 141.300781 C 169.566406 139.496094 169.082031 137.058594 169.289062 135.222656 C 169.65625 131.984375 171.71875 129.34375 173.515625 127.027344 C 173.644531 126.851562 173.867188 126.808594 174.074219 126.875 C 174.28125 126.941406 174.398438 127.140625 174.386719 127.355469 L 173.757812 134.089844 C 173.667969 135.042969 173.582031 136.023438 173.324219 136.949219 C 173.175781 137.472656 172.96875 137.988281 172.753906 138.480469 C 173.035156 138.285156 173.339844 138.082031 173.636719 137.933594 C 174.925781 137.257812 176.355469 136.9375 177.726562 136.683594 C 178.574219 136.519531 179.402344 136.46875 180.207031 136.425781 C 180.828125 136.382812 181.449219 136.34375 182.078125 136.25 C 182.308594 136.230469 182.507812 136.351562 182.597656 136.5625 C 182.667969 136.777344 182.609375 137.007812 182.417969 137.148438 L 178.460938 139.808594 C 177.457031 140.472656 176.4375 141.167969 175.277344 141.589844 C 175.15625 141.628906 175.039062 141.667969 174.917969 141.703125 C 173.480469 142.164062 171.917969 142.238281 170.535156 142.28125 C 169.023438 145.167969 167.488281 148.144531 166.566406 151.292969 C 167.089844 154.511719 167.59375 157.761719 168.152344 160.996094 C 168.210938 161.347656 168.277344 161.722656 168.335938 162.074219 C 168.402344 161.707031 168.449219 161.347656 168.46875 161.078125 C 168.554688 160.363281 168.636719 159.621094 168.910156 158.902344 C 169.609375 157.039062 171.3125 155.835938 172.695312 154.867188 L 174.726562 153.453125 C 174.902344 153.34375 175.109375 153.332031 175.273438 153.4375 C 175.441406 153.542969 175.507812 153.757812 175.46875 153.957031 L 174.574219 157.625 C 174.417969 158.285156 174.246094 159 173.953125 159.648438 C 173.222656 161.335938 171.78125 162.535156 170.511719 163.601562 L 168.847656 165.003906 C 169.425781 168.308594 170.050781 171.601562 170.675781 174.890625 C 171.136719 173.027344 171.800781 171.125 172.980469 169.53125 C 173.589844 168.703125 174.316406 167.996094 175.015625 167.296875 L 177.742188 164.578125 C 177.878906 164.425781 178.109375 164.40625 178.289062 164.480469 C 178.472656 164.554688 178.589844 164.757812 178.570312 164.945312 C 178.542969 165.351562 178.511719 165.757812 178.484375 166.164062 C 178.394531 167.460938 178.324219 168.808594 178.066406 170.160156 C 177.90625 170.976562 177.734375 171.851562 177.363281 172.683594 C 177.054688 173.363281 176.582031 174.042969 175.90625 174.8125 C 175.398438 175.371094 174.707031 175.855469 173.96875 176.277344 C 176.878906 175.878906 179.875 176.246094 182.570312 177.421875 C 182.730469 177.503906 182.855469 177.648438 182.859375 177.832031 C 182.867188 178.015625 182.785156 178.175781 182.632812 178.277344 C 182.351562 178.472656 182.078125 178.691406 181.804688 178.910156 C 181.425781 179.214844 181.03125 179.550781 180.558594 179.808594 C 180 180.121094 179.382812 180.421875 178.710938 180.636719 C 178.613281 180.667969 178.496094 180.703125 178.398438 180.734375 C 175.964844 181.378906 173.390625 180.347656 171.433594 178.933594 C 175.800781 200.757812 181.28125 222.441406 187.792969 243.636719 C 187.855469 243.828125 187.789062 244.035156 187.644531 244.160156 C 187.605469 244.199219 187.53125 244.222656 187.484375 244.238281 C 187.363281 244.277344 187.230469 244.265625 187.101562 244.199219 C 183.539062 242.292969 179.882812 240.101562 176.335938 238.003906 C 174.21875 236.75 172.039062 235.460938 169.941406 234.25 C 165.644531 231.785156 161.734375 229.460938 158.246094 226.554688 C 157.730469 227.75 156.664062 228.882812 155.519531 229.351562 C 155.382812 229.421875 155.242188 229.46875 155.097656 229.511719 C 154.304688 229.765625 153.476562 229.816406 152.59375 229.859375 C 151.214844 229.929688 150.167969 229.867188 149.414062 229.65625 C 149.238281 229.605469 149.089844 229.46875 149.050781 229.269531 C 149.023438 229.09375 149.089844 228.886719 149.242188 228.785156 L 152.117188 226.785156 C 152.742188 226.347656 153.394531 225.902344 154.167969 225.605469 C 155.015625 225.28125 155.898438 225.238281 156.75 225.257812 C 154.25 222.960938 152.085938 220.398438 150.140625 217.683594 C 150.191406 219.414062 149.984375 221.171875 149.507812 222.832031 C 148.835938 225.1875 147.667969 227.332031 146.519531 229.441406 C 146.453125 229.570312 146.367188 229.625 146.246094 229.660156 C 146.148438 229.691406 146.046875 229.699219 145.960938 229.671875 C 145.753906 229.605469 145.605469 229.390625 145.617188 229.175781 C 145.707031 228.140625 145.667969 227.015625 145.609375 225.84375 C 145.523438 224.074219 145.441406 222.25 145.910156 220.566406 C 146.210938 219.519531 146.714844 218.617188 147.347656 217.78125 C 147.035156 217.960938 146.683594 218.097656 146.347656 218.207031 C 146.296875 218.222656 146.25 218.238281 146.226562 218.246094 C 144.222656 218.832031 142.070312 217.875 140.503906 217.183594 C 140.320312 217.109375 140.210938 216.933594 140.222656 216.71875 C 140.242188 216.527344 140.371094 216.355469 140.53125 216.277344 C 141.953125 215.769531 143.433594 215.273438 144.964844 215.023438 C 146.167969 214.824219 147.304688 214.832031 148.320312 215.039062 C 147.191406 213.308594 146.121094 211.535156 145.078125 209.75 C 142.863281 209.507812 140.648438 209.601562 138.484375 210.105469 C 138.230469 210.714844 138.015625 211.367188 137.824219 212.007812 C 137.765625 212.238281 137.707031 212.46875 137.625 212.707031 C 137.441406 213.453125 137.230469 214.207031 136.878906 214.929688 C 135.980469 216.828125 134.285156 218.136719 132.46875 219.402344 C 132.429688 219.441406 132.382812 219.457031 132.332031 219.46875 C 132.214844 219.507812 132.078125 219.5 131.953125 219.433594 C 131.792969 219.351562 131.683594 219.175781 131.703125 218.984375 C 131.722656 218.632812 131.816406 218.179688 131.886719 217.734375 C 131.96875 217.339844 132.046875 216.917969 132.058594 216.621094 C 132.121094 215.414062 132.210938 214.035156 132.832031 212.832031 C 133.191406 212.136719 133.722656 211.570312 134.3125 211.09375 C 132.988281 211.328125 131.671875 211.429688 130.441406 211.214844 C 127.625 210.738281 125.492188 208.851562 123.398438 207.007812 L 123.148438 206.796875 C 123.109375 206.675781 123.0625 206.453125 123.113281 206.277344 Z M 158.855469 209.726562 C 160.128906 209.003906 161.058594 207.863281 161.539062 206.386719 C 158.933594 207.164062 156.460938 208.347656 154.222656 209.855469 C 155.527344 210.230469 157.46875 210.511719 158.855469 209.726562 Z M 156.046875 202.902344 C 156.117188 201.792969 156.128906 200.679688 156.097656 199.578125 C 155.992188 199.746094 155.878906 199.886719 155.765625 200.027344 C 155.398438 200.542969 155.035156 201.054688 154.660156 201.621094 C 154.304688 202.160156 153.90625 202.734375 153.726562 203.324219 C 153.507812 203.972656 153.5 204.691406 153.492188 205.40625 C 153.472656 206.179688 153.476562 207.023438 153.484375 207.867188 C 153.476562 208.265625 153.472656 208.664062 153.5 209.078125 C 154.289062 208.167969 155.035156 207.1875 155.472656 206.070312 C 155.859375 205.050781 155.96875 203.902344 156.046875 202.902344 Z M 153.410156 164.449219 C 153.113281 165.097656 152.726562 166.199219 152.441406 167.136719 C 153.597656 166.53125 154.671875 165.761719 155.574219 164.867188 C 156.003906 164.46875 156.285156 164.113281 156.496094 163.78125 C 156.804688 163.257812 157.035156 162.65625 157.21875 162.070312 L 157.765625 160.46875 C 157.445312 160.625 157.125 160.777344 156.804688 160.933594 C 155.382812 161.863281 154.121094 162.953125 153.410156 164.449219 Z M 152.296875 158.640625 C 150.683594 158.707031 149.085938 159.003906 147.324219 159.433594 C 148.191406 159.761719 149.128906 160.046875 150.222656 160.332031 C 151 160.535156 152.023438 160.761719 153.058594 160.777344 C 154.042969 160.808594 155.25 160.53125 156.371094 160.066406 C 156.761719 159.808594 157.164062 159.574219 157.566406 159.34375 C 156.035156 158.773438 154.273438 158.539062 152.296875 158.640625 Z M 153.984375 152.417969 C 153.160156 151.730469 152.21875 151.101562 151.320312 150.515625 C 150.785156 150.160156 150.253906 149.824219 149.710938 149.441406 C 150.542969 151.476562 151.558594 153.585938 153.019531 155.183594 C 154.273438 156.554688 156.15625 157.492188 157.96875 158.367188 C 157.96875 158.367188 158 158.382812 158 158.382812 C 157.242188 156.085938 155.835938 153.996094 153.984375 152.417969 Z M 163.484375 132.496094 C 163.203125 131.449219 162.839844 130.398438 162.464844 129.382812 L 160.304688 123.511719 C 160.078125 126.785156 160.027344 130.105469 160.925781 133.257812 C 161.464844 135.199219 162.636719 137.050781 163.757812 138.832031 C 163.875 139.035156 164.007812 139.203125 164.125 139.402344 C 164.164062 137.039062 164.058594 134.71875 163.484375 132.496094 Z M 172.804688 133.996094 L 173.277344 128.925781 C 171.875 130.828125 170.535156 132.921875 170.242188 135.3125 C 170.082031 136.714844 170.375 138.550781 170.6875 140.117188 C 171.402344 139.042969 172.046875 137.914062 172.394531 136.691406 C 172.644531 135.816406 172.722656 134.894531 172.804688 133.996094 Z M 174.929688 140.667969 C 175.996094 140.277344 176.972656 139.621094 177.90625 138.980469 L 180.296875 137.375 C 180.273438 137.382812 180.273438 137.382812 180.25 137.386719 C 179.445312 137.433594 178.671875 137.496094 177.875 137.640625 C 176.527344 137.886719 175.21875 138.171875 174.046875 138.808594 C 172.980469 139.359375 171.894531 140.339844 171.191406 141.277344 C 172.472656 141.242188 173.753906 141.121094 174.929688 140.667969 Z M 162.425781 148.488281 C 161.566406 147.621094 160.695312 146.710938 159.695312 145.972656 C 158.355469 144.996094 156.796875 144.328125 155.300781 143.695312 L 152.484375 142.476562 C 152.828125 142.976562 153.140625 143.457031 153.515625 143.972656 C 154.820312 145.753906 156.144531 147.421875 157.953125 148.378906 C 158.878906 148.875 159.925781 149.175781 160.9375 149.460938 L 164.339844 150.441406 Z M 160.546875 172.273438 C 160.976562 173.117188 161.441406 173.839844 162.023438 174.582031 C 162.640625 175.363281 163.191406 175.925781 163.78125 176.292969 C 165.375 177.320312 167.710938 177.265625 169.660156 177.09375 C 167.636719 174.882812 164.648438 173.292969 160.546875 172.273438 Z M 169.894531 162.820312 C 171.078125 161.808594 172.410156 160.695312 173.074219 159.214844 C 173.335938 158.628906 173.496094 157.96875 173.648438 157.367188 L 174.230469 154.960938 L 173.234375 155.648438 C 171.683594 156.75 170.339844 157.757812 169.804688 159.226562 C 169.574219 159.828125 169.5 160.511719 169.421875 161.171875 C 169.367188 161.664062 169.238281 162.339844 169.136719 163.007812 C 169.109375 163.175781 169.066406 163.375 169.039062 163.539062 Z M 176.472656 172.277344 C 176.796875 171.566406 176.960938 170.75 177.113281 169.984375 C 177.34375 168.722656 177.425781 167.480469 177.503906 166.160156 L 175.675781 167.957031 C 174.992188 168.625 174.289062 169.324219 173.738281 170.082031 C 172.378906 171.945312 171.75 174.285156 171.261719 176.476562 C 172.667969 175.84375 174.285156 175.117188 175.164062 174.148438 C 175.789062 173.449219 176.207031 172.863281 176.472656 172.277344 Z M 178.164062 179.75 C 178.867188 179.554688 179.507812 179.246094 180.117188 178.917969 C 180.5 178.714844 180.832031 178.425781 181.1875 178.128906 C 181.25 178.082031 181.332031 178.003906 181.394531 177.957031 C 178.257812 176.8125 174.75 176.742188 171.570312 177.78125 C 174.097656 179.832031 176.609375 180.167969 178.164062 179.75 Z M 139.925781 197.722656 C 139.355469 197.003906 138.640625 196.414062 137.945312 195.816406 L 133.3125 191.871094 C 133.433594 192.175781 133.589844 192.496094 133.710938 192.800781 C 134.113281 193.730469 134.515625 194.660156 134.894531 195.597656 C 135.394531 196.839844 135.902344 198.105469 136.605469 199.230469 C 137.648438 200.933594 139.722656 202.546875 142.230469 203.707031 C 141.828125 201.613281 141.304688 199.398438 139.925781 197.722656 Z M 147.023438 204.585938 C 147.242188 203.191406 146.957031 201.722656 146.699219 200.324219 L 146.453125 199.054688 C 144.945312 201.703125 144.589844 205.148438 145.578125 208.085938 C 146.21875 207.035156 146.816406 205.839844 147.023438 204.585938 Z M 159.089844 223.320312 C 159.347656 222.632812 159.601562 221.941406 159.691406 221.226562 C 159.917969 219.621094 159.214844 218.074219 158.421875 216.582031 L 158.054688 218.074219 C 157.875 218.84375 157.675781 219.621094 157.578125 220.394531 C 157.40625 221.847656 157.628906 223.367188 158.214844 224.710938 C 158.304688 224.578125 158.375 224.476562 158.464844 224.339844 C 158.726562 223.996094 158.960938 223.65625 159.089844 223.320312 Z M 154.554688 226.484375 C 153.914062 226.714844 153.3125 227.144531 152.726562 227.542969 L 150.847656 228.855469 C 151.332031 228.886719 151.914062 228.886719 152.566406 228.863281 C 153.53125 228.820312 154.40625 228.753906 155.175781 228.429688 C 156.0625 228.066406 156.933594 227.15625 157.375 226.222656 C 156.429688 226.152344 155.425781 226.15625 154.554688 226.484375 Z M 146.902344 220.777344 C 146.460938 222.292969 146.542969 224.039062 146.632812 225.730469 C 146.648438 226.203125 146.667969 226.671875 146.683594 227.140625 C 147.453125 225.65625 148.179688 224.128906 148.636719 222.5 C 149.136719 220.753906 149.3125 218.902344 149.1875 217.089844 C 148.183594 218.253906 147.300781 219.382812 146.902344 220.777344 Z M 145.183594 215.960938 C 144.128906 216.136719 143.113281 216.433594 142.085938 216.761719 C 143.351562 217.257812 144.746094 217.660156 146 217.285156 C 146.605469 217.117188 147.199219 216.746094 147.753906 216.410156 C 147.90625 216.308594 148.113281 216.214844 148.273438 216.136719 C 148.347656 216.113281 148.433594 216.058594 148.507812 216.039062 C 147.53125 215.792969 146.417969 215.777344 145.183594 215.960938 Z M 133.125 216.652344 C 133.105469 217.003906 133.011719 217.457031 132.941406 217.902344 C 132.941406 217.902344 132.949219 217.925781 132.925781 217.933594 C 134.25 216.957031 135.441406 215.886719 136.082031 214.496094 C 136.375 213.847656 136.558594 213.179688 136.746094 212.433594 C 136.804688 212.203125 136.878906 211.941406 136.9375 211.710938 C 137.054688 211.328125 137.171875 210.949219 137.308594 210.558594 C 135.839844 211.160156 134.445312 211.921875 133.757812 213.253906 C 133.265625 214.28125 133.195312 215.546875 133.125 216.652344 Z M 130.71875 210.253906 C 132.503906 210.558594 134.5625 210.140625 136.496094 209.578125 L 131.988281 208.023438 C 130.800781 207.609375 129.554688 207.1875 128.308594 207.003906 C 127.164062 206.8125 125.957031 206.828125 124.777344 206.859375 C 126.585938 208.398438 128.453125 209.863281 130.71875 210.253906 Z M 130.71875 210.253906 " fill-opacity="1" fill-rule="nonzero"/></g></g></g><g clip-path="url(#id7)"><path fill="#356859" d="M 92.824219 182.328125 C 89.925781 182.328125 87.574219 184.675781 87.574219 187.578125 C 87.574219 190.476562 89.925781 192.828125 92.824219 192.828125 C 95.722656 192.828125 98.074219 190.476562 98.074219 187.578125 C 98.074219 184.675781 95.722656 182.328125 92.824219 182.328125 " fill-opacity="1" fill-rule="nonzero"/></g><g clip-path="url(#id8)"><path fill="#356859" d="M 282.328125 182.328125 C 279.429688 182.328125 277.078125 184.675781 277.078125 187.578125 C 277.078125 190.476562 279.429688 192.828125 282.328125 192.828125 C 285.230469 192.828125 287.578125 190.476562 287.578125 187.578125 C 287.578125 184.675781 285.230469 182.328125 282.328125 182.328125 " fill-opacity="1" fill-rule="nonzero"/></g><g fill="#356859" fill-opacity="1"><g transform="translate(95.329572, 157.722903)"><g><path d="M -9.328125 -6.453125 L -8.640625 -7.890625 L 0.1875 -3.5625 L 2.875 -9.015625 L 4.125 -8.40625 L 0.75 -1.515625 Z M -9.328125 -6.453125 "/></g></g></g><g fill="#356859" fill-opacity="1"><g transform="translate(102.281095, 144.3472)"><g><path d="M 2.8125 -8.828125 L -0.640625 -3.96875 L 0.953125 -1.34375 L -0.015625 0.015625 L -6.234375 -10.609375 L -5.3125 -11.90625 L 6.796875 -9.578125 L 5.828125 -8.203125 Z M 1.4375 -9.125 L -4.453125 -10.3125 L -1.359375 -5.171875 Z M 1.4375 -9.125 "/></g></g></g><g fill="#356859" fill-opacity="1"><g transform="translate(112.85752, 130.537367)"><g/></g></g><g fill="#356859" fill-opacity="1"><g transform="translate(119.879452, 123.343799)"><g><path d="M -3.265625 -10.0625 L -6.21875 -7.609375 L -7.109375 -8.6875 L 0.03125 -14.609375 L 0.921875 -13.53125 L -2.03125 -11.078125 L 4.234375 -3.515625 L 3 -2.5 Z M -3.265625 -10.0625 "/></g></g></g><g fill="#356859" fill-opacity="1"><g transform="translate(131.558304, 114.048233)"><g><path d="M 5.90625 -3.265625 C 4.925781 -2.691406 3.921875 -2.390625 2.890625 -2.359375 C 1.859375 -2.335938 0.894531 -2.578125 0 -3.078125 C -0.882812 -3.578125 -1.597656 -4.296875 -2.140625 -5.234375 C -2.679688 -6.171875 -2.941406 -7.148438 -2.921875 -8.171875 C -2.910156 -9.191406 -2.632812 -10.140625 -2.09375 -11.015625 C -1.5625 -11.898438 -0.804688 -12.628906 0.171875 -13.203125 C 1.148438 -13.765625 2.15625 -14.054688 3.1875 -14.078125 C 4.21875 -14.109375 5.171875 -13.875 6.046875 -13.375 C 6.929688 -12.875 7.648438 -12.148438 8.203125 -11.203125 C 8.742188 -10.253906 9.007812 -9.273438 9 -8.265625 C 8.988281 -7.253906 8.710938 -6.304688 8.171875 -5.421875 C 7.640625 -4.546875 6.882812 -3.828125 5.90625 -3.265625 Z M 5.203125 -4.5 C 5.921875 -4.90625 6.46875 -5.429688 6.84375 -6.078125 C 7.226562 -6.734375 7.421875 -7.441406 7.421875 -8.203125 C 7.421875 -8.960938 7.21875 -9.695312 6.8125 -10.40625 C 6.40625 -11.113281 5.875 -11.65625 5.21875 -12.03125 C 4.5625 -12.40625 3.851562 -12.585938 3.09375 -12.578125 C 2.34375 -12.578125 1.609375 -12.375 0.890625 -11.96875 C 0.179688 -11.550781 -0.363281 -11.015625 -0.75 -10.359375 C -1.144531 -9.703125 -1.34375 -8.992188 -1.34375 -8.234375 C -1.34375 -7.484375 -1.140625 -6.753906 -0.734375 -6.046875 C -0.328125 -5.335938 0.203125 -4.789062 0.859375 -4.40625 C 1.515625 -4.03125 2.222656 -3.847656 2.984375 -3.859375 C 3.753906 -3.867188 4.492188 -4.082031 5.203125 -4.5 Z M 5.203125 -4.5 "/></g></g></g><g fill="#356859" fill-opacity="1"><g transform="translate(148.180677, 105.077029)"><g><path d="M 6.015625 -1.984375 C 4.609375 -1.484375 3.367188 -1.5 2.296875 -2.03125 C 1.222656 -2.5625 0.421875 -3.582031 -0.109375 -5.09375 L -2.234375 -11.109375 L -0.734375 -11.640625 L 1.375 -5.6875 C 2.164062 -3.414062 3.554688 -2.628906 5.546875 -3.328125 C 6.515625 -3.671875 7.15625 -4.210938 7.46875 -4.953125 C 7.78125 -5.703125 7.738281 -6.648438 7.34375 -7.796875 L 5.234375 -13.75 L 6.71875 -14.265625 L 8.84375 -8.25 C 9.375 -6.726562 9.390625 -5.425781 8.890625 -4.34375 C 8.390625 -3.269531 7.429688 -2.484375 6.015625 -1.984375 Z M 6.015625 -1.984375 "/></g></g></g><g fill="#356859" fill-opacity="1"><g transform="translate(165.461, 99.538261)"><g><path d="M 9.0625 -1.5 L 6.109375 -4.5 C 5.816406 -4.4375 5.585938 -4.390625 5.421875 -4.359375 L 2.671875 -3.90625 L 3.234375 -0.53125 L 1.671875 -0.28125 L -0.15625 -11.34375 L 4.15625 -12.046875 C 5.582031 -12.285156 6.765625 -12.128906 7.703125 -11.578125 C 8.640625 -11.035156 9.207031 -10.164062 9.40625 -8.96875 C 9.539062 -8.113281 9.445312 -7.347656 9.125 -6.671875 C 8.800781 -5.992188 8.273438 -5.457031 7.546875 -5.0625 L 10.796875 -1.78125 Z M 5.15625 -5.703125 C 6.15625 -5.859375 6.882812 -6.195312 7.34375 -6.71875 C 7.800781 -7.238281 7.960938 -7.898438 7.828125 -8.703125 C 7.691406 -9.503906 7.328125 -10.070312 6.734375 -10.40625 C 6.140625 -10.75 5.34375 -10.84375 4.34375 -10.6875 L 1.640625 -10.234375 L 2.453125 -5.25 Z M 5.15625 -5.703125 "/></g></g></g><g fill="#356859" fill-opacity="1"><g transform="translate(182.416428, 97.171807)"><g><path d="M 11.484375 -11.0625 L 11.328125 0.15625 L 10.015625 0.140625 L 3.390625 -8.328125 L 3.28125 0.046875 L 1.6875 0.015625 L 1.84375 -11.203125 L 3.15625 -11.171875 L 9.78125 -2.71875 L 9.890625 -11.078125 Z M 11.484375 -11.0625 "/></g></g></g><g fill="#356859" fill-opacity="1"><g transform="translate(201.01705, 98.128843)"><g><path d="M 3.453125 -10.8125 L 5.015625 -10.5625 L 3.234375 0.515625 L 1.671875 0.265625 Z M 3.453125 -10.8125 "/></g></g></g><g fill="#356859" fill-opacity="1"><g transform="translate(211.49901, 99.979228)"><g><path d="M 6.375 2.09375 C 5.300781 1.757812 4.40625 1.222656 3.6875 0.484375 C 2.96875 -0.253906 2.488281 -1.113281 2.25 -2.09375 C 2.019531 -3.082031 2.0625 -4.097656 2.375 -5.140625 C 2.695312 -6.191406 3.226562 -7.054688 3.96875 -7.734375 C 4.71875 -8.410156 5.597656 -8.847656 6.609375 -9.046875 C 7.628906 -9.253906 8.675781 -9.195312 9.75 -8.875 C 10.582031 -8.613281 11.304688 -8.234375 11.921875 -7.734375 C 12.535156 -7.242188 13.003906 -6.648438 13.328125 -5.953125 L 12.03125 -5.296875 C 11.488281 -6.390625 10.613281 -7.117188 9.40625 -7.484375 C 8.601562 -7.734375 7.820312 -7.773438 7.0625 -7.609375 C 6.3125 -7.453125 5.65625 -7.113281 5.09375 -6.59375 C 4.539062 -6.082031 4.144531 -5.4375 3.90625 -4.65625 C 3.675781 -3.882812 3.644531 -3.128906 3.8125 -2.390625 C 3.988281 -1.648438 4.335938 -1 4.859375 -0.4375 C 5.390625 0.113281 6.054688 0.515625 6.859375 0.765625 C 8.054688 1.128906 9.195312 1.003906 10.28125 0.390625 L 10.984375 1.671875 C 10.316406 2.066406 9.585938 2.300781 8.796875 2.375 C 8.015625 2.445312 7.207031 2.351562 6.375 2.09375 Z M 6.375 2.09375 "/></g></g></g><g fill="#356859" fill-opacity="1"><g transform="translate(227.674968, 105.391336)"><g><path d="M 15.203125 -4.78125 L 10.078125 5.1875 L 8.65625 4.453125 L 10.9375 0 L 5.203125 -2.953125 L 2.921875 1.5 L 1.5 0.765625 L 6.625 -9.203125 L 8.046875 -8.46875 L 5.84375 -4.1875 L 11.578125 -1.234375 L 13.78125 -5.515625 Z M 15.203125 -4.78125 "/></g></g></g><g fill="#356859" fill-opacity="1"><g transform="translate(243.848906, 114.359076)"><g><path d="M 8.671875 4.828125 L 7.828125 5.9375 L 1.34375 1.015625 L 8.109375 -7.921875 L 14.421875 -3.140625 L 13.59375 -2.03125 L 8.546875 -5.84375 L 6.453125 -3.09375 L 10.9375 0.296875 L 10.125 1.375 L 5.640625 -2.015625 L 3.453125 0.875 Z M 8.671875 4.828125 "/></g></g></g><g fill="#356859" fill-opacity="1"><g transform="translate(256.552494, 124.584831)"><g><path d="M 9.78125 -4 L 7.125 -6.765625 L 8.125 -7.734375 L 14.5625 -1.046875 L 13.5625 -0.078125 L 10.890625 -2.859375 L 3.8125 3.953125 L 2.703125 2.8125 Z M 9.78125 -4 "/></g></g></g><g fill="#356859" fill-opacity="1"><g transform="translate(266.664926, 135.68275)"><g><path d="M 10.28125 -2.5 L 8.046875 -5.640625 L 9.171875 -6.453125 L 14.546875 1.125 L 13.421875 1.9375 L 11.203125 -1.203125 L 3.1875 4.484375 L 2.265625 3.1875 Z M 10.28125 -2.5 "/></g></g></g><g fill="#356859" fill-opacity="1"><g transform="translate(275.022384, 148.121621)"><g><path d="M 5.625 8.171875 L 4.375 8.796875 L 0.75 1.515625 L 10.796875 -3.484375 L 14.328125 3.609375 L 13.078125 4.234375 L 10.265625 -1.4375 L 7.171875 0.09375 L 9.671875 5.125 L 8.453125 5.734375 L 5.953125 0.703125 L 2.71875 2.3125 Z M 5.625 8.171875 "/></g></g></g><g fill="#356859" fill-opacity="1"><g transform="translate(89.698463, 219.628132)"><g><path d="M 3.546875 5.734375 L 2.21875 6.203125 L 0.34375 0.953125 L 9.609375 -2.359375 L 10.140625 -0.890625 L 2.203125 1.953125 Z M 3.546875 5.734375 "/></g></g></g><g fill="#356859" fill-opacity="1"><g transform="translate(94.837047, 232.687181)"><g><path d="M 11.796875 -3.75 L 14.390625 -1.640625 L 13.53125 -0.609375 L 10.984375 -2.796875 Z M 0.421875 0.796875 L 9.15625 -3.75 L 11.8125 1.359375 L 10.5625 2.015625 L 8.625 -1.703125 L 6.203125 -0.4375 L 7.953125 2.921875 L 6.75 3.546875 L 5 0.1875 L 2.390625 1.53125 L 4.34375 5.296875 L 3.09375 5.953125 Z M 0.421875 0.796875 "/></g></g></g><g fill="#356859" fill-opacity="1"><g transform="translate(101.703678, 244.926204)"><g><path d="M 2.203125 3.34375 C 1.460938 2.300781 1.242188 1.3125 1.546875 0.375 C 1.859375 -0.5625 2.738281 -1.539062 4.1875 -2.5625 C 5.632812 -3.59375 6.863281 -4.09375 7.875 -4.0625 C 8.894531 -4.03125 9.773438 -3.488281 10.515625 -2.4375 C 11.109375 -1.601562 11.53125 -0.769531 11.78125 0.0625 L 10.515625 0.625 C 10.316406 -0.09375 9.9375 -0.84375 9.375 -1.625 C 8.914062 -2.269531 8.359375 -2.5625 7.703125 -2.5 C 7.054688 -2.445312 6.210938 -2.050781 5.171875 -1.3125 C 4.128906 -0.570312 3.472656 0.101562 3.203125 0.71875 C 2.929688 1.34375 2.992188 1.9375 3.390625 2.5 C 3.671875 2.894531 4.015625 3.285156 4.421875 3.671875 L 6.328125 2.3125 L 5.53125 1.171875 L 6.671875 0.375 L 8.34375 2.734375 L 4.390625 5.53125 C 3.554688 4.957031 2.828125 4.226562 2.203125 3.34375 Z M 2.203125 3.34375 "/></g></g></g><g fill="#356859" fill-opacity="1"><g transform="translate(110.170792, 256.117788)"><g><path d="M 2.6875 -1.984375 L 7.453125 -6.453125 L 8.53125 -5.296875 L 3.890625 -0.9375 C 3.328125 -0.414062 3.003906 0.0546875 2.921875 0.484375 C 2.828125 0.890625 3.015625 1.34375 3.484375 1.84375 C 3.953125 2.34375 4.394531 2.570312 4.8125 2.53125 C 5.238281 2.488281 5.742188 2.195312 6.328125 1.65625 L 10.96875 -2.703125 L 12.046875 -1.546875 L 7.28125 2.921875 C 6.414062 3.722656 5.601562 4.128906 4.84375 4.140625 C 4.09375 4.160156 3.285156 3.707031 2.421875 2.78125 C 1.554688 1.863281 1.171875 1.035156 1.265625 0.296875 C 1.367188 -0.429688 1.84375 -1.191406 2.6875 -1.984375 Z M 2.6875 -1.984375 "/></g></g></g><g fill="#356859" fill-opacity="1"><g transform="translate(120.081115, 266.054065)"><g><path d="M 0.25 0.203125 L 6.453125 -7.4375 L 7.59375 -6.515625 L 5.84375 -1.328125 L 5.921875 -1.25 L 10.640625 -4.03125 L 11.796875 -3.09375 L 5.59375 4.546875 L 4.484375 3.640625 L 8.734375 -1.5 L 8.671875 -1.53125 L 5.609375 0.25 L 4.453125 -0.6875 L 5.5625 -4.0625 L 5.515625 -4.109375 L 1.34375 1.09375 Z M 0.25 0.203125 "/></g></g></g><g fill="#356859" fill-opacity="1"><g transform="translate(131.250515, 274.550421)"><g><path d="M 0.78125 0.46875 L 5.890625 -7.953125 L 10.796875 -4.96875 L 10.0625 -3.765625 L 6.484375 -5.9375 L 5.0625 -3.59375 L 8.296875 -1.625 L 7.59375 -0.46875 L 4.359375 -2.4375 L 2.84375 0.078125 L 6.46875 2.28125 L 5.734375 3.484375 Z M 0.78125 0.46875 "/></g></g></g><g fill="#356859" fill-opacity="1"><g transform="translate(143.471543, 281.449047)"><g><path d="M 3.453125 -6.375 C 4.191406 -8.070312 5.582031 -8.476562 7.625 -7.59375 C 8.34375 -7.28125 9.085938 -6.765625 9.859375 -6.046875 L 9 -4.9375 C 8.1875 -5.632812 7.507812 -6.101562 6.96875 -6.34375 C 6.4375 -6.582031 6.007812 -6.660156 5.6875 -6.578125 C 5.375 -6.503906 5.117188 -6.238281 4.921875 -5.78125 C 4.773438 -5.457031 4.789062 -5.128906 4.96875 -4.796875 C 5.15625 -4.460938 5.523438 -4.078125 6.078125 -3.640625 C 6.941406 -2.960938 7.460938 -2.34375 7.640625 -1.78125 C 7.828125 -1.226562 7.75 -0.550781 7.40625 0.25 C 6.644531 1.988281 5.222656 2.410156 3.140625 1.515625 C 2.453125 1.210938 1.648438 0.6875 0.734375 -0.0625 L 1.59375 -1.25 C 1.59375 -1.238281 1.710938 -1.132812 1.953125 -0.9375 C 2.753906 -0.3125 3.398438 0.101562 3.890625 0.3125 C 4.378906 0.53125 4.800781 0.566406 5.15625 0.421875 C 5.507812 0.273438 5.765625 0.015625 5.921875 -0.359375 C 6.085938 -0.734375 6.109375 -1.066406 5.984375 -1.359375 C 5.867188 -1.660156 5.566406 -2.003906 5.078125 -2.390625 C 4.210938 -3.097656 3.644531 -3.75 3.375 -4.34375 C 3.101562 -4.945312 3.128906 -5.625 3.453125 -6.375 Z M 3.453125 -6.375 "/></g></g></g><g fill="#356859" fill-opacity="1"><g transform="translate(156.517111, 286.621785)"><g/></g></g><g fill="#356859" fill-opacity="1"><g transform="translate(170.144906, 289.97247)"><g><path d="M 0.671875 0.09375 L 2.015625 -9.65625 L 5.015625 -9.25 C 7.171875 -8.945312 8.128906 -7.957031 7.890625 -6.28125 C 7.816406 -5.726562 7.613281 -5.273438 7.28125 -4.921875 C 6.945312 -4.566406 6.535156 -4.367188 6.046875 -4.328125 C 6.585938 -4.171875 6.988281 -3.867188 7.25 -3.421875 C 7.519531 -2.972656 7.613281 -2.425781 7.53125 -1.78125 C 7.28125 0.0625 5.945312 0.816406 3.53125 0.484375 Z M 3.9375 -0.828125 C 4.59375 -0.734375 5.078125 -0.8125 5.390625 -1.0625 C 5.710938 -1.3125 5.90625 -1.675781 5.96875 -2.15625 C 6.039062 -2.644531 5.9375 -3.015625 5.65625 -3.265625 C 5.382812 -3.523438 4.925781 -3.703125 4.28125 -3.796875 L 2.8125 -4 L 2.40625 -1.046875 Z M 6.359375 -6.375 C 6.484375 -7.25 6.003906 -7.757812 4.921875 -7.90625 L 3.375 -8.125 L 3 -5.359375 L 4.4375 -5.15625 C 5.59375 -5 6.234375 -5.40625 6.359375 -6.375 Z M 6.359375 -6.375 "/></g></g></g><g fill="#356859" fill-opacity="1"><g transform="translate(184.101732, 291.438965)"><g><path d="M 1.078125 0 L 1.078125 -1.390625 L 3.015625 -1.390625 L 3.015625 -8.453125 L 1.078125 -8.453125 L 1.078125 -9.84375 L 6.390625 -9.84375 L 6.390625 -8.453125 L 4.578125 -8.453125 L 4.578125 -1.390625 L 6.390625 -1.390625 L 6.390625 0 Z M 1.078125 0 "/></g></g></g><g fill="#356859" fill-opacity="1"><g transform="translate(198.128354, 290.993934)"><g><path d="M 3.75 -0.359375 C 2.539062 -0.191406 1.617188 -0.488281 0.984375 -1.25 C 0.359375 -2.019531 -0.0664062 -3.265625 -0.296875 -4.984375 C -0.535156 -6.703125 -0.441406 -7.992188 -0.015625 -8.859375 C 0.398438 -9.734375 1.207031 -10.253906 2.40625 -10.421875 C 3.601562 -10.585938 4.507812 -10.3125 5.125 -9.59375 C 5.738281 -8.875 6.164062 -7.632812 6.40625 -5.875 C 6.644531 -4.113281 6.566406 -2.796875 6.171875 -1.921875 C 5.773438 -1.046875 4.96875 -0.523438 3.75 -0.359375 Z M 3.53125 -1.75 C 4.226562 -1.851562 4.664062 -2.175781 4.84375 -2.71875 C 5.03125 -3.257812 5.023438 -4.242188 4.828125 -5.671875 C 4.628906 -7.109375 4.375 -8.046875 4.0625 -8.484375 C 3.75 -8.929688 3.253906 -9.109375 2.578125 -9.015625 C 1.910156 -8.921875 1.476562 -8.597656 1.28125 -8.046875 C 1.09375 -7.492188 1.085938 -6.550781 1.265625 -5.21875 C 1.453125 -3.894531 1.703125 -2.960938 2.015625 -2.421875 C 2.328125 -1.878906 2.832031 -1.65625 3.53125 -1.75 Z M 3.53125 -1.75 "/></g></g></g><g fill="#356859" fill-opacity="1"><g transform="translate(211.964186, 288.6457)"><g><path d="M 5.96875 -3.140625 L 6.34375 -1.78125 L 0.984375 -0.28125 L -1.671875 -9.765625 L -0.171875 -10.171875 L 2.109375 -2.046875 Z M 5.96875 -3.140625 "/></g></g></g><g fill="#356859" fill-opacity="1"><g transform="translate(225.352161, 284.437855)"><g><path d="M 3.515625 -1.359375 C 2.398438 -0.867188 1.4375 -0.90625 0.625 -1.46875 C -0.1875 -2.039062 -0.9375 -3.125 -1.625 -4.71875 C -2.320312 -6.320312 -2.582031 -7.597656 -2.40625 -8.546875 C -2.238281 -9.492188 -1.601562 -10.207031 -0.5 -10.6875 C 0.601562 -11.164062 1.546875 -11.144531 2.328125 -10.625 C 3.117188 -10.101562 3.867188 -9.023438 4.578125 -7.390625 C 5.285156 -5.753906 5.566406 -4.460938 5.421875 -3.515625 C 5.273438 -2.566406 4.640625 -1.847656 3.515625 -1.359375 Z M 2.9375 -2.640625 C 3.582031 -2.921875 3.914062 -3.347656 3.9375 -3.921875 C 3.957031 -4.492188 3.679688 -5.441406 3.109375 -6.765625 C 2.535156 -8.085938 2.039062 -8.921875 1.625 -9.265625 C 1.21875 -9.617188 0.703125 -9.660156 0.078125 -9.390625 C -0.546875 -9.117188 -0.878906 -8.6875 -0.921875 -8.09375 C -0.960938 -7.507812 -0.710938 -6.601562 -0.171875 -5.375 C 0.359375 -4.144531 0.847656 -3.3125 1.296875 -2.875 C 1.742188 -2.4375 2.289062 -2.359375 2.9375 -2.640625 Z M 2.9375 -2.640625 "/></g></g></g><g fill="#356859" fill-opacity="1"><g transform="translate(238.043595, 278.448575)"><g><path d="M 3.5 -1.953125 C 2.414062 -1.296875 1.414062 -1.148438 0.5 -1.515625 C -0.414062 -1.890625 -1.332031 -2.835938 -2.25 -4.359375 C -3.175781 -5.878906 -3.585938 -7.144531 -3.484375 -8.15625 C -3.390625 -9.164062 -2.789062 -10.003906 -1.6875 -10.671875 C -0.8125 -11.203125 0.046875 -11.5625 0.890625 -11.75 L 1.359375 -10.4375 C 0.640625 -10.289062 -0.128906 -9.96875 -0.953125 -9.46875 C -1.628906 -9.0625 -1.960938 -8.53125 -1.953125 -7.875 C -1.941406 -7.21875 -1.601562 -6.34375 -0.9375 -5.25 C -0.28125 -4.164062 0.34375 -3.460938 0.9375 -3.140625 C 1.539062 -2.828125 2.140625 -2.847656 2.734375 -3.203125 C 3.148438 -3.453125 3.554688 -3.769531 3.953125 -4.15625 L 2.75 -6.140625 L 1.5625 -5.421875 L 0.84375 -6.625 L 3.328125 -8.125 L 5.84375 -3.984375 C 5.207031 -3.191406 4.425781 -2.515625 3.5 -1.953125 Z M 3.5 -1.953125 "/></g></g></g><g fill="#356859" fill-opacity="1"><g transform="translate(249.802727, 270.789171)"><g><path d="M 0.84375 -0.671875 L -0.03125 -1.75 L 1.46875 -2.984375 L -2.984375 -8.46875 L -4.484375 -7.234375 L -5.359375 -8.3125 L -1.234375 -11.671875 L -0.359375 -10.59375 L -1.78125 -9.453125 L 2.671875 -3.96875 L 4.09375 -5.109375 L 4.96875 -4.03125 Z M 0.84375 -0.671875 "/></g></g></g><g fill="#356859" fill-opacity="1"><g transform="translate(260.411083, 261.601869)"><g><path d="M 5.15625 -3.921875 L 3.53125 -4.03125 C 3.375 -3.539062 3.09375 -3.078125 2.6875 -2.640625 C 1.851562 -1.753906 0.957031 -1.40625 0 -1.59375 C -0.96875 -1.78125 -2.097656 -2.476562 -3.390625 -3.6875 C -4.691406 -4.90625 -5.453125 -5.960938 -5.671875 -6.859375 C -5.890625 -7.753906 -5.578125 -8.65625 -4.734375 -9.5625 C -3.890625 -10.46875 -3.007812 -10.84375 -2.09375 -10.6875 C -1.175781 -10.53125 -0.0664062 -9.835938 1.234375 -8.609375 C 2.546875 -7.390625 3.320312 -6.304688 3.5625 -5.359375 L 4.953125 -5.203125 Z M -2.15625 -4.65625 C -1.382812 -3.945312 -0.671875 -3.457031 -0.015625 -3.1875 C 0.628906 -2.925781 1.195312 -3.054688 1.6875 -3.578125 C 1.820312 -3.734375 1.921875 -3.867188 1.984375 -3.984375 L 1.21875 -3.96875 L 0.796875 -5.359375 L 1.90625 -5.390625 C 1.644531 -5.953125 1.050781 -6.664062 0.125 -7.53125 C -0.875 -8.476562 -1.675781 -9.015625 -2.28125 -9.140625 C -2.5 -9.191406 -2.738281 -9.175781 -3 -9.09375 C -3.269531 -9.007812 -3.507812 -8.851562 -3.71875 -8.625 C -3.9375 -8.40625 -4.078125 -8.160156 -4.140625 -7.890625 C -4.203125 -7.628906 -4.203125 -7.382812 -4.140625 -7.15625 C -4.078125 -6.9375 -3.945312 -6.6875 -3.75 -6.40625 C -3.457031 -5.957031 -2.925781 -5.375 -2.15625 -4.65625 Z M -2.15625 -4.65625 "/></g></g></g><g fill="#356859" fill-opacity="1"><g transform="translate(269.671625, 251.05738)"><g><path d="M -2.484375 -2.21875 L -7.8125 -6 L -6.890625 -7.296875 L -1.703125 -3.625 C -1.078125 -3.175781 -0.546875 -2.945312 -0.109375 -2.9375 C 0.304688 -2.9375 0.710938 -3.210938 1.109375 -3.765625 C 1.503906 -4.328125 1.640625 -4.8125 1.515625 -5.21875 C 1.390625 -5.632812 1.003906 -6.070312 0.359375 -6.53125 L -4.828125 -10.203125 L -3.921875 -11.484375 L 1.40625 -7.703125 C 2.363281 -7.023438 2.925781 -6.316406 3.09375 -5.578125 C 3.257812 -4.847656 2.972656 -3.96875 2.234375 -2.9375 C 1.503906 -1.90625 0.769531 -1.359375 0.03125 -1.296875 C -0.695312 -1.242188 -1.535156 -1.550781 -2.484375 -2.21875 Z M -2.484375 -2.21875 "/></g></g></g><g fill="#356859" fill-opacity="1"><g transform="translate(277.412276, 239.351531)"><g><path d="M 0.421875 -0.796875 L -8.3125 -5.34375 L -5.65625 -10.453125 L -4.40625 -9.796875 L -6.34375 -6.078125 L -3.921875 -4.8125 L -2.171875 -8.171875 L -0.96875 -7.546875 L -2.71875 -4.1875 L -0.109375 -2.84375 L 1.84375 -6.609375 L 3.09375 -5.953125 Z M 0.421875 -0.796875 "/></g></g></g><g fill="#356859" fill-opacity="1"><g transform="translate(283.489284, 226.701891)"><g><path d="M -6.59375 -3.015625 C -8.34375 -3.640625 -8.84375 -5 -8.09375 -7.09375 C -7.820312 -7.832031 -7.351562 -8.613281 -6.6875 -9.4375 L -5.515625 -8.65625 C -6.148438 -7.800781 -6.566406 -7.097656 -6.765625 -6.546875 C -6.972656 -5.992188 -7.023438 -5.5625 -6.921875 -5.25 C -6.828125 -4.9375 -6.546875 -4.695312 -6.078125 -4.53125 C -5.753906 -4.414062 -5.429688 -4.453125 -5.109375 -4.640625 C -4.785156 -4.835938 -4.425781 -5.238281 -4.03125 -5.84375 C -3.414062 -6.738281 -2.832031 -7.289062 -2.28125 -7.5 C -1.738281 -7.71875 -1.054688 -7.679688 -0.234375 -7.390625 C 1.546875 -6.753906 2.054688 -5.367188 1.296875 -3.234375 C 1.046875 -2.523438 0.578125 -1.6875 -0.109375 -0.71875 L -1.34375 -1.5 C -1.332031 -1.5 -1.238281 -1.628906 -1.0625 -1.890625 C -0.5 -2.722656 -0.128906 -3.390625 0.046875 -3.890625 C 0.234375 -4.398438 0.242188 -4.828125 0.078125 -5.171875 C -0.0859375 -5.515625 -0.363281 -5.753906 -0.75 -5.890625 C -1.144531 -6.023438 -1.484375 -6.019531 -1.765625 -5.875 C -2.046875 -5.738281 -2.363281 -5.421875 -2.71875 -4.921875 C -3.375 -4.003906 -3.992188 -3.390625 -4.578125 -3.078125 C -5.160156 -2.765625 -5.832031 -2.742188 -6.59375 -3.015625 Z M -6.59375 -3.015625 "/></g></g></g></svg>